<svg xmlns="http://www.w3.org/2000/svg" xmlns:xlink="http://www.w3.org/1999/xlink" width="1200" height="1200" viewBox="0 0 1200 1200">
  <!--Designed by Fyissh Inc. -->
  <defs>
    <style>
      .cls-1 {
        fill: #596c76;
      }

      .cls-1, .cls-2 {
        fill-rule: evenodd;
      }

      .cls-2 {
        fill: #b6c4cf;
      }

      .cls-3 {
        fill: #99a5ab;
      }
    </style>
  </defs>
 
  <path class="cls-1" d="M444,1095L417,852a310.317,310.317,0,0,0,303-3q-10,122.5-20,245H587c-2.517-37.29-7.706-107.029-14-107s-10.829,69.72-13,107Q502,1094.495,444,1095Z"/>
  <path class="cls-2" d="M419,856c-22.89-28.74-24.975-70.592-15-114,13.593-59.154,65.2-146.742,158-150,92.943-3.263,155.223,81.776,170,150,7.445,34.374,8.354,80.179-17,112-12.767,16.023-68.314,39.66-149,40C486.313,894.336,431.612,871.836,419,856Z"/>
  <path class="cls-1" d="M565,872c-58.816-15.345-110.762-50.4-145-101-24.977-36.913-56.136-105.693-37-182,9.317-37.154,25.056-60.792,40-76,16.062-16.346,62.383-43.193,130-47,69.428-3.909,120.466,18.751,138,33,34.895,28.357,52.293,71.016,58,109,8.349,55.567-10.129,115.445-56,176-27.708,36.577-63.832,66-106,87q18.673-53.491,38-105c20.987-55.849,33.376-87.009,18-111-27.693-43.208-128.84-44.275-155-3-14.951,23.59-2.02,55.646,23,109C528.678,798.7,546.405,835.146,565,872Z"/>
  <ellipse class="cls-3" cx="560" cy="385" rx="183" ry="168"/>
</svg>
