<svg xmlns="http://www.w3.org/2000/svg" width="695" height="718" viewBox="0 0 695 718">
  <!--Designed by Fyissh Inc. -->
  <defs>
    <style>
      .cls-1 {
        fill: #b6c4cf;
      }

      .cls-1, .cls-2 {
        fill-rule: evenodd;
      }

      .cls-2 {
        fill: #596c76;
      }
    </style>
  </defs>
  <path id="Arrow" class="cls-1" d="M32,478a423.276,423.276,0,0,0,72,1c30-2.137,61.467-7.873,96-18,25.426-7.456,48.975-16.619,74-28,47.939-21.8,110.684-54.526,167-86l3-25,251-64L444,455q-0.5-13.5-1-27c-50.232,22.186-106.564,47.375-148,67-12.282,5.817-48.606,20.375-74,31-22,9.205-59.3,22.7-99,28a361.273,361.273,0,0,1-87,1Z"/>
  <path id="Human" class="cls-2" d="M271,459c-4.064-2.947-7.554-7.906-9-16-2.056-11.508,2.76-22.284,4-25,2.358-5.164,6.665-27.615,10-45a355.442,355.442,0,0,0,5-36q-8.041-30.512-19-60c-2.26-6.081-4.557-11.989-7-18a97.926,97.926,0,0,0-22,24,117.675,117.675,0,0,0,7,13c4.948,7.931,9.378,13.1,9,21-0.154,3.219-1.266,10.218-7,14-5.509,3.634-13.843,3.318-21-2a98.58,98.58,0,0,1-14-16c-5.075-7.272-8.112-14.442-9-19a43.548,43.548,0,0,1,0-16c1.742-9.847,6.21-16.757,14-27,8.212-10.8,15.556-18.992,22-22,5.66-2.642,16.121-3.563,28-4,7.788-.287,13.486-0.033,20-2,7.684-2.32,15.745-7.292,22-10,4.6-1.993,9.195-3.65,15-3,4.025,0.451,10.333,3.067,17,9,6.47,5.757,9.528,11.245,16,17,4.034,3.587,7.222,5.642,11,7,6.594,2.37,12.179,1.676,18,1,9.052-1.051,15.339-1.3,20,1,3.718,1.833,10.777,6.835,11,15,0.2,7.481-6.061,12.92-9,15-5.615,3.973-16.236,4.551-32,2-9.177-1.485-18.2-3.784-23-6-5.438-2.511-13.46-7.855-21-15a100.57,100.57,0,0,1-10-11,70.692,70.692,0,0,0,5,29c4.182,10.361,10.237,18.3,13,20,17.2,10.563,38.931-8.082,57,2,7,3.906,11.895,11.111,15,21q6.5,23.5,13,47a26,26,0,0,1-7,23c-8.587,8.481-22.355,9.342-30,4-8.184-5.719-7.452-17.838-8-39-0.19-7.335-.519-14.545-1-22a119.614,119.614,0,0,0-53,8c-0.628,19.248-1.869,45.771-3,69-0.829,17.015-2.639,46.633-19,54-5.189,2.336-11.754,2.467-16,2A28.112,28.112,0,0,1,271,459Zm-4.5-326c21.263,0,38.5,17.013,38.5,38s-17.237,38-38.5,38S228,191.987,228,171,245.237,133,266.5,133Z"/>
</svg>
