<svg xmlns="http://www.w3.org/2000/svg" width="512" height="512" viewBox="0 0 512 512">
  <!--Designed by Fyissh Inc. -->
  <defs>
    <style>
      .cls-1 {
        fill: #99a5ab;
      }

      .cls-1, .cls-2 {
        fill-rule: evenodd;
      }

      .cls-2 {
        fill: #596c76;
      }
    </style>
  </defs>
  <path id="Shape_2_copy" data-name="Shape 2 copy" class="cls-1" d="M327.675,479.005l-28.422-41.671a137.17,137.17,0,0,1-39.209-11.567c-31.6-14.807-50.317-39.9-59.645-52.516-16-21.64-62.344-81.576-93.432-123.748a20.383,20.383,0,0,1,32.208-22.151l59.563,75.568a9.969,9.969,0,0,0,13.159-.815,9.826,9.826,0,0,0,1.084-11.933L118.369,168.323a20.041,20.041,0,0,1,30.483-25.315l95.7,120.945a10.294,10.294,0,0,0,16.239-12.568L149.746,111.006c-6.231-10.283-3.083-23.067,5.616-28.567,6.87-4.344,16.649-3.759,23.959,2.167l114.857,142.73a9.682,9.682,0,0,0,14.243-12.748L211.813,92.558c-4.3-9.82-.878-21.043,7.431-26.4a21.293,21.293,0,0,1,24.05,1.173L358.061,211.057a9.924,9.924,0,0,0,9.8,2.892,10.042,10.042,0,0,0,6.984-10.4q-0.149-31.594-.3-63.19c2.592-10.536,12.586-17.3,22.591-16a20.785,20.785,0,0,1,17.522,17.626c0.555,52.668,1.148,131.381,2.424,161.635a253.239,253.239,0,0,1-.9,32,215.2,215.2,0,0,1-4.436,26.668L440,405.95,376.85,447.36"/>
  <path class="cls-2" d="M25,360l39-32a136.414,136.414,0,0,1,8-40c11.919-32.73,35.257-53.593,47-64,20.141-17.849,75.742-69.306,115-104a20.356,20.356,0,0,1,25,30l-70,66a9.665,9.665,0,0,0,14,13L316,124c8.712-6.036,20.449-4.526,27,3a20.42,20.42,0,0,1,1,25L232,258a10.285,10.285,0,0,0,14,15L376,150c9.694-7.119,22.73-5.146,29,3,4.952,6.434,5.252,16.2,0,24L273,304a9.676,9.676,0,0,0,14,13L400,210c9.407-5.155,20.91-2.771,27,5a21.173,21.173,0,0,1,1,24L295,366a9.875,9.875,0,0,0-2,10,10.056,10.056,0,0,0,11,6l63-6c10.743,1.624,18.39,10.943,18,21a20.768,20.768,0,0,1-16,19c-52.482,5.307-130.939,13-161,17a254.749,254.749,0,0,1-32,2,216.391,216.391,0,0,1-27-2l-41,32L61,406"/>
</svg>
