<svg xmlns="http://www.w3.org/2000/svg" width="27" height="27" viewBox="-20 -20 540 672">
<defs>
    <style>
     .fy-measures_22 {
    fill: #596c76;
}
.fy-measures_11 {
    fill: #99a5ab;
    fill-rule: evenodd;
}
    </style>
  </defs>
<g><path id="creativeMeasure" d="M85.044 1.02777C72.0297 7.94684 88.6182 32.4772 92.7415 41C111.405 79.5775 129.189 118.611 148.248 157C165.22 191.186 181.181 225.869 198.247 260C204.004 271.514 209.892 283.186 215 295C216.868 299.32 220.503 304.239 220.845 309C221.272 314.949 217.193 322.422 215.333 328C210.533 342.399 205.134 356.601 200.333 371C182.463 424.6 162.204 477.4 144.333 531C134.743 559.764 124.257 588.229 114.667 617C111.547 626.358 109.57 644.247 126 639.351C138.373 635.664 150.818 625.832 162 619.421C185.764 605.797 209.511 592.094 233 578C242.969 572.018 264.136 564.073 269.972 553.816C275.508 544.087 269.233 522.641 268.169 512C267.73 507.61 265.54 500.112 269.318 496.815C279.825 487.645 297.551 482.974 310 476.753C348.075 457.728 386.931 440.281 425 421.247C439.632 413.931 460.361 407.93 472.61 397.096C485.552 385.647 486.65 361.237 496.213 347.099C499.42 342.358 504.651 345.217 509 346.667C520.604 350.534 532.163 354.884 544 357.985C550.955 359.808 559.485 358.815 559.931 349.999C560.544 337.86 553.12 323.361 549.333 312L535.333 270C533.451 264.354 531.929 256.434 526.892 252.703C520.148 247.707 507.109 247.898 499 246.729C477.317 243.605 455.703 239.982 434 237C425.778 235.87 409.704 236.195 403.329 230.566C392.817 221.286 386.47 200.585 380.691 188C370.172 165.09 358.521 142.549 347.247 120C341.755 109.017 337.105 94.7404 329.046 85.3936C321.278 76.3849 299.025 72.6978 288 68.5756C250.544 54.5704 212.669 41.7147 175 28.3079C153.415 20.6255 131.69 13.3873 110 5.99695C103.36 3.73456 92.007 -2.67413 85.044 1.02777z" class="fy-measures_22"></path> <path id="creativeMeasure" d="M414 257C427.44 291.643 445.135 327.981 464 360L466 360L503 270L414 257z" class="fy-measures_11"></path> <path id="creativeMeasure" d="M248 325L264 472C284.316 468.378 306.44 453.239 325 444.258C347.91 433.173 370.87 421.929 394 411.309C406.779 405.441 423.149 399.991 434 391C398.567 375.219 360.517 364.304 324 351.308C299.696 342.658 273.401 329.371 248 325z" class="fy-measures_11"></path></g></svg>

