<svg xmlns="http://www.w3.org/2000/svg" width="1504" height="1875" viewBox="0 0 1504 1875">
<!--Designed by Fyissh Inc. -->
  <defs>
    <style>
      .cls-1 {
        fill: #99a5ab;
        fill-rule: evenodd;
      }
      .cls-2{
        fill : #596c76
      }
    </style>
  </defs>
  <path id="Color_Fill_1" data-name="Color Fill 1" class="cls-2" d="M103,1305c1.449-19.54,13.546-32.62,24-45,15.374-18.21,22.754-34.68,38-53,30.03-36.08,90.48-129.44,141-200,62.332-87.058,111.658-161.136,177-220,59.456-53.561,146.037-114.927,269-136,52.411-8.982,127.947-15.587,142,14,13.927,29.322-37.668,83.363-78,119-37.166,32.839-155.769,83.438-186,154-16.6,38.753-20.421,95.11,9,131,15.7,19.16,66.009,40.16,147,33,22.148-1.96,70.528-16.34,114-33,36.707-14.07,70-29.65,83-62,5.521-13.738,5.9-33.205,7-39,4.919-26.03,15.22-41.2,26-61,7.01-12.869,21.45-52.851,33-83,10.27-26.788,25.31-64.785,29-77,18.03-59.619,22.99-106.414,60-125,19.63-9.858,47.63-11.575,61,2,16.98,17.238,4.18,52.759-10,95-19.61,58.388-27.6,109.1-54,149-22.52,34.038-62.2,68.723-104,108-17.19,16.155-27.07,24.56-26,26,3.1,4.2,91.71-46.106,171-127,62.12-63.37,110.31-137.38,123-171,10.02-26.527,49.26-139.449,95-183,12.12-11.539,23.9-17.4,36-17,19.76,0.648,33.96,17.77,39,25,25.7,36.869,6.42,92.532-9,130-28.35,68.885-68.01,151.394-85,175-51.1,70.986-105.68,167.87-176,251-98.59,116.54-197.43,206.35-298,276-31.322,21.69-112.18,65.85-173,101-58.794,33.98-115.118,65.38-198,72-39.193,3.13-112.124-4.15-188-31-35.821-12.67-118.512-59.12-188-118C130.235,1364.86,100.567,1337.82,103,1305Z"/>
  <path class="cls-2" d="M1165,846c-10.82-6.19,25.24-94.5,34-133,10.61-46.607,24.95-85.494,36-132,3.94-16.581,13.67-58.049,38-63,14.68-2.988,28.05,8.038,33,13,10.7,10.725,16.13,26.787,15,53-2.09,48.335-24.45,90.134-37,114-21.89,41.644-43.9,84.5-88,128C1181.44,840.362,1170.38,849.076,1165,846Z"/>
  <path class="cls-1" d="M1009,83c-26.76-.164-46.529,72.973-90,189-37.192,99.266-65.035,169.55-28,229,23.653,37.968,74.515,71.959,134,67,43.81-3.652,87.27-28.664,109-67,33.92-59.845,1-127.954-34-216C1052.11,164.545,1038.35,83.179,1009,83Z"/>
</svg>
