<svg xmlns="http://www.w3.org/2000/svg" width="1933" height="1875" viewBox="0 0 1933 1875">
  <!--Designed by Fyissh Inc. -->
  <defs>
    <style>
      .cls-1 {
        fill: #99a5ab;
        stroke: #596c76;
        stroke-width: 88.62px;
      }

      .cls-2 {
        fill: #b6c4cf;
      }

      .cls-3 {
        fill: #b6c4cf;
      }

      .cls-4 {
        fill: #d0eaf5;
      }

      .cls-4, .cls-5 {
        fill-rule: evenodd;
      }

      .cls-5 {
        fill: #e8f3f7;
      }
    </style>
  </defs>
  <rect class="cls-1" x="206" y="165" width="1590" height="1557"/>
  <rect id="Rounded_Rectangle_1" data-name="Rounded Rectangle 1" class="cls-2" x="434" y="336" width="558" height="1176" rx="10" ry="10"/>
  <rect id="Rounded_Rectangle_2" data-name="Rounded Rectangle 2" class="cls-3" x="982" y="342" width="619" height="1101" rx="10" ry="10"/>
  <path id="Color_Fill_1" data-name="Color Fill 1" class="cls-4" d="M919,145L495,595s-48.113,47.334,44,63c25.265,4.3,65.844,9.818,107,15,102.684,12.93,224,27,224,27L692,964s-29.371,41.32,37,60c30.048,8.46,59.076,10.33,100,18,66.633,12.49,139,23,139,23L736,1462s-47.944,45.41,15,48,171,0,171,0l583-609s33.67-39.746-54-48-311-33-311-33l250-284s29.42-29.937-25-36-305-30-305-30l86-94s21.4-30.019-28-33-66-6-66-6l110-148s13.98-40.522-46-42S919,145,919,145Z"/>
  <path id="Color_Fill_2" data-name="Color Fill 2" class="cls-5" d="M919,145L495,595s-48.113,47.334,44,63c25.265,4.3,65.844,9.818,107,15,102.684,12.93,224,27,224,27L692,964s-29.371,41.32,37,60c30.048,8.46,59.076,10.33,100,18,66.633,12.49,139,23,139,23L736,1462s-47.944,45.41,15,48,171,0,171,0l583-609s33.67-39.746-54-48-311-33-311-33l250-284s29.42-29.937-25-36-305-30-305-30l86-94s21.4-30.019-28-33-66-6-66-6l110-148s13.98-40.522-46-42S919,145,919,145Z"/>
</svg>
