<svg xmlns="http://www.w3.org/2000/svg" width="1442" height="1875" viewBox="0 0 1442 1875">
  <!--Designed by Fyissh Inc. -->
  <defs>
    <style>
      .cls-1 {
        fill: #b6c4cf;
      }

      .cls-1, .cls-2, .cls-3 {
        fill-rule: evenodd;
      }

      .cls-2 {
        fill: #99a5ab;
      }

      .cls-3 {
        fill: #596c76;
      }
    </style>
  </defs>
  <path id="Color_Fill_1_copy_2" data-name="Color Fill 1 copy 2" class="cls-1" d="M926.8,302L794.979,581.738c-8.448,20.423-11.757,41.159-8.365,61.818,8.437,51.388,68.589,85.339,59.627,99.116-1.493,2.3-13.71,9.061-29.293,8.426a128,128,0,0,0-30.015,2.106c-19.688,4.107-39.469,15.682-52.125,33.724a73.961,73.961,0,0,0-13.062,50.956L719,1151.33c2.209,19.45,20.394,34.13,41.193,33.7,20.131-.42,34.488-17.41,36.616-36.23l2.747-256.148c2.935-7.934,7.527-12.981,10.984-12.639,3.931,0.389,8.133,7.914,7.385,19.774l4.516,768.883c9.136,16.45,30.342,26.24,49.432,25.28a50.06,50.06,0,0,0,40.277-23.59l2.747-475.22c2.812-6.51,9.891-10.6,17.392-10.11,7.318,0.47,13.6,5.2,15.562,11.79l1.831,473.54c8.056,14.01,23.447,23.07,40.278,23.59,18.82,0.59,36.7-9.61,44.85-26.12V889.281a14.088,14.088,0,0,1,15.57-9.268,13.254,13.254,0,0,1,10.98,10.954l4.58,276.363c5.51,15.46,20.74,25.46,36.61,25.28,19.07-.21,36.19-15,37.54-34.54v-324.4c2.61-17.534-.21-35.175-9.16-50.555a71.594,71.594,0,0,0-19.22-21.907c-8.75-6.485-22.57-12.57-43.03-15.167-19.05-2.42-52.12,2.644-54.92-3.37-1.38-2.965,3.3-11.8,9.15-16.852,0,0,57.54-50.478,58.59-90.156,1.08-40.7-7.26-55.173-11.9-70.778S966.159,369.407,966.159,369.407Z"/>
  <path id="Color_Fill_1_copy" data-name="Color Fill 1 copy" class="cls-2" d="M681.69,196L546.133,497.637c-8.687,22.022-12.09,44.381-8.6,66.657,8.677,55.41,70.535,92.02,61.319,106.874-1.536,2.476-14.1,9.772-30.124,9.086a125.678,125.678,0,0,0-30.867,2.271,87.818,87.818,0,0,0-53.6,36.364,82.706,82.706,0,0,0-13.433,54.945L468,1111.81c2.272,20.98,20.973,36.81,42.361,36.34,20.7-.44,35.467-18.76,37.655-39.06l2.824-276.2c3.019-8.554,7.741-14,11.3-13.628,4.042,0.42,8.362,8.533,7.594,21.322l4.644,829.077c9.395,17.73,31.2,28.29,50.833,27.25a51.1,51.1,0,0,0,41.421-25.43l2.824-512.42a18.027,18.027,0,0,1,17.886-10.91,17.833,17.833,0,0,1,16,12.72l1.883,510.61a49.173,49.173,0,0,0,87.547-2.73V829.255a14.418,14.418,0,0,1,16-9.994,13.975,13.975,0,0,1,11.3,11.811l4.706,298c5.664,16.67,21.332,27.45,37.655,27.26,19.6-.22,37.207-16.17,38.6-37.25V769.291c2.693-18.906-.209-37.928-9.413-54.512a76.247,76.247,0,0,0-19.769-23.623c-9-6.992-23.212-13.553-44.245-16.353-19.6-2.609-53.6,2.851-56.482-3.635-1.42-3.2,3.393-12.726,9.414-18.17,0,0,59.167-54.43,60.248-97.215,1.108-43.886-7.469-59.491-12.238-76.317S722.169,268.683,722.169,268.683Z"/>
  <path id="Color_Fill_1" data-name="Color Fill 1" class="cls-3" d="M433,51L289,383c-9.229,24.239-12.843,48.849-9.138,73.367C289.079,517.355,354.79,557.65,345,574c-1.631,2.725-14.977,10.755-32,10-10.011-.444-22.105.078-32.79,2.5A92.724,92.724,0,0,0,209,687l-3,372c2.414,23.09,22.279,40.51,45,40,21.991-.49,37.675-20.66,40-43l3-304c3.207-9.416,8.223-15.406,12-15,4.294,0.462,8.884,9.392,8.067,23.468L319,1673c9.981,19.52,33.147,31.14,54,30,18.467-1.01,34.983-11.83,44-28l3-564a18.983,18.983,0,0,1,36,2l2,562a52.1,52.1,0,0,0,44,28c20.556,0.69,40.089-11.41,49-31V748c2.274-7.687,9.816-12.295,17-11a15.148,15.148,0,0,1,12,13l5,328c6.016,18.34,22.661,30.21,40,30,20.825-.25,39.524-17.8,41-41V682c2.86-20.81-.222-41.746-10-60a83.21,83.21,0,0,0-21-26c-9.555-7.7-24.657-14.918-47-18-20.818-2.872-56.939,3.138-60-4-1.509-3.518,3.6-14.007,10-20,0,0,62.852-59.909,64-107,1.177-48.305-7.934-65.48-13-84S476,131,476,131Z"/>
</svg>
