<svg xmlns="http://www.w3.org/2000/svg" width="1450" height="1875" viewBox="0 0 1450 1875">
  <!--Designed by Fyissh Inc. -->
  <defs>
    <style>
      .cls-1 {
        fill: #596c76;
      }

      .cls-1, .cls-2, .cls-3 {
        fill-rule: evenodd;
      }

      .cls-2 {
        fill: #b6c4cf;
        opacity: 0.42;
      }

      .cls-3 {
        fill: #b6c4cf;
      }
    </style>
  </defs>
  <path id="Color_Fill_1" data-name="Color Fill 1" class="cls-1" d="M182,847L285,648l3,58,96-170v88L505,410l-3,102L644,248l-2,94,81-141,76,141,10-82L936,497l2-86,108,201,7-109,99,184,8-61,95,186-59-29,88,180-91-67,113,228-72-47,111,224-88-59,87,168-167,6,62,51-136,7,42,35-144,6,36,27-161,4,54,34-384,1,53-34-177-3,46-32-181-3,45-38-150-4,48-54-145-1,95-174-85,48,108-213-79,48,93-175-74,44,86-170Z"/>
  <path class="cls-2" d="M621,913l21-571,81-142,79,142,12,559,441,341,89,168-169,6L719,1084,231,1414l-147-2,93-176L593,932Z"/>
  <path class="cls-3" d="M120,1132L491,868l11-453L384,631l-8,197L217,943Z"/>
  <path class="cls-3" d="M937,856l2-452,109,211,2,174,145,109,118,233Z"/>
  <path class="cls-3" d="M723,1195L286,1508q93,1.995,186,4,128-86.505,256-173,135.5,88.005,271,176l159-3Z"/>
</svg>
