<svg xmlns="http://www.w3.org/2000/svg" width="1733" height="1850" viewBox="0 0 1733 1850">
  <!--Designed by Fyissh Inc. -->
  <defs>
    <style>
      .cls-1 {
        fill: #596c76;
      }

      .cls-1, .cls-2, .cls-3 {
        fill-rule: evenodd;
      }

      .cls-2 {
        fill: #596c76;
      }

      .cls-3 {
        fill: #99a5ab;
      }
    </style>
  </defs>
  <path id="Color_Fill_1" data-name="Color Fill 1" class="cls-1" d="M188,1233c-0.237-16.8,14.39-28.75,24-38,10.324-9.94,28.37-39.54,44-67,20.07-35.26,34.409-69.86,42-103,15.242-66.538.36-119.1,6-176,6.708-67.673,25.938-120.889,51-163,18.531-31.137,53.251-72.673,102-111a484.384,484.384,0,0,1,167-85c32.747-9.3,68.893-15.409,111-18a596.131,596.131,0,0,1,185,18L831,715c-57.312,10.587-111.734,28.91-162,55-39.051,20.269-70.851,43.957-89,63-44.723,46.925-71.018,109.172-79,173-8.991,71.9,8.269,145.68,46,210,31.592,53.85,77.374,99.06,133,129,54.715,29.45,105.6,40.03,150,40,65.512-.04,128.859-21.78,182-61q65.505,40.995,131,82a550.26,550.26,0,0,0-35,193c-46.33,28.5-94.83,60.08-132,87a563.206,563.206,0,0,1-56,36c-44.636,24.87-87.93,41.3-130,51a473.131,473.131,0,0,1-113,12c-9.315-36.98-22.622-74.97-40-107-9.691-17.86-19.457-31.12-35-41-23.02-14.63-51.48-16.79-100-8-56.7,10.27-91.92,25.59-116,7-4.267-3.29-13.035-17.84-19-35-5.41-15.56-9.347-33.76-12-52-1.527-10.5-3.372-25.68-15-39-3.288-3.77-12.369-10.6-22-16-9.562-5.36-17.266-7.55-20-13-6.155-12.27,6.883-32.31,26-53q-21.5-12.495-43-25a89.392,89.392,0,0,1,2-34c1.065-4.03,7.475-17.49,8-29,0.472-10.36-1.853-27.05-14-39-7.079-6.97-14.439-9.22-23-12-10.992-3.57-23.162-7.82-29-11C214.493,1272.28,188.321,1255.71,188,1233Z"/>
  <path class="cls-2" d="M1060,818l90-209a452.221,452.221,0,0,1,88,126c17.84,38.182,40.93,128.591,42,226a848.619,848.619,0,0,1-24,209q-52.995-32.505-106-65A378.955,378.955,0,0,0,1060,818Z"/>
  <path class="cls-3" d="M934,809c-5.879,9.743-74.768-29.637-149-24-40.913,3.107-81.529,16.632-116,40-23.617,16.01-50.7,41.877-75,83-24.418,41.322-35.368,80.663-38,116-3.588,48.17,7.434,100.43,36,151,20.154,35.68,50.271,69.74,92,98,52.443,35.51,100.815,48.72,142,51,51.663,2.86,111.432-8.47,159-44a209.646,209.646,0,0,0,26-23q157.005,91.5,314,183a184.156,184.156,0,0,0,32,121c26.38,38.03,65.13,62.36,105,73,43.76,11.68,115.91,13.17,172-39,67.16-62.47,68.14-168.33,25-235a171.763,171.763,0,0,0-72-62c-48.65-22.47-100.21-18.03-139-4-34.51,12.48-64.42,34.79-87,64q8.505-21,17-42l-288-168c17.05-50.22,20.21-103.75,8-155-13.01-54.623-36.84-92.672-63-119a224.7,224.7,0,0,0-45-35q76.005-191.5,152-383-16.005-14.5-32-29a153.259,153.259,0,0,0,77,3c31.18-6.915,61.77-25.074,87-55,31.1-36.889,64.84-109.986,29-185-26.28-55.009-78.88-85.589-129-92-53.73-6.873-103.18,13.547-137,45-37.382,34.77-54.366,82.064-55,126a180.125,180.125,0,0,0,39,114L879,752C906.04,773.692,938.51,801.526,934,809Z"/>
</svg>
