<svg xmlns="http://www.w3.org/2000/svg" width="1098" height="1708" viewBox="0 0 1098 1708">
  <!--Designed by Fyissh Inc. (Tushar)-->
  <defs>
    <style>
      .cls-1 {
        fill: #99a5ab;
      }

      .cls-1, .cls-2 {
        fill-rule: evenodd;
      }

      .cls-2 {
        fill: #596c76;
      }
    </style>
  </defs>
  <path id="Shape_1_copy_40" data-name="Shape 1 copy 40" class="cls-1" d="M666,92c27.556-33.945,67.825-46.517,102-45,48.436,2.15,87.674,31.847,107,69,14.1,27.1,26.353,75.308-2,122-27.688,45.6-74.56,57.717-105,58-54.235.5-105.928-35.09-123-88C634.814,176.432,634.731,130.519,666,92ZM928.119,345.517a81.516,81.516,0,0,1,68.211-31.43c32.39,1.5,58.63,22.244,71.56,48.193,9.42,18.931,17.62,52.6-1.34,85.21-18.52,31.848-49.86,40.312-70.22,40.51-36.269.352-70.838-24.509-82.255-61.463C907.264,404.488,907.208,372.421,928.119,345.517Zm-623,473a81.516,81.516,0,0,1,68.211-31.43c32.391,1.5,58.631,22.244,71.555,48.193,9.429,18.931,17.623,52.6-1.337,85.21C425.032,952.337,393.687,960.8,373.33,961c-36.269.352-70.838-24.509-82.255-61.463C284.264,877.488,284.208,845.421,305.119,818.517Zm67,260a81.508,81.508,0,0,1,68.211-31.43c32.391,1.5,58.631,22.24,71.555,48.19,9.429,18.93,17.623,52.6-1.337,85.21-18.516,31.85-49.861,40.31-70.218,40.51-36.269.35-70.838-24.51-82.255-61.46C351.264,1137.49,351.208,1105.42,372.119,1078.52ZM393.285,184.9c16.563-19.485,40.768-26.7,61.309-25.83a77.162,77.162,0,0,1,64.315,39.606c8.474,15.558,15.84,43.228-1.2,70.029-16.643,26.174-44.816,33.131-63.113,33.293-32.6.289-63.67-20.142-73.931-50.513C374.54,233.367,374.49,207.012,393.285,184.9Zm-6,199c16.563-19.485,40.768-26.7,61.309-25.83a77.162,77.162,0,0,1,64.315,39.606c8.474,15.558,15.84,43.228-1.2,70.029-16.643,26.174-44.816,33.131-63.113,33.293-32.6.289-63.67-20.142-73.931-50.513C368.54,432.367,368.49,406.012,387.285,383.9Zm40,182c16.563-19.485,40.768-26.7,61.309-25.83a77.162,77.162,0,0,1,64.315,39.606c8.474,15.558,15.84,43.228-1.2,70.029-16.643,26.174-44.816,33.131-63.113,33.293-32.6.289-63.67-20.142-73.931-50.513C408.54,614.367,408.49,588.012,427.285,565.9Zm402,13c16.563-19.485,40.768-26.7,61.309-25.83a77.162,77.162,0,0,1,64.315,39.606c8.474,15.558,15.84,43.228-1.2,70.029-16.643,26.174-44.816,33.131-63.113,33.293-32.6.289-63.67-20.142-73.931-50.513C810.54,627.367,810.49,601.012,829.285,578.9Zm39,177c16.563-19.485,40.768-26.7,61.309-25.83a77.162,77.162,0,0,1,64.315,39.606c8.471,15.558,15.841,43.228-1.2,70.029-16.643,26.174-44.816,33.131-63.113,33.293-32.6.289-63.67-20.142-73.931-50.513C849.54,804.367,849.49,778.012,868.285,755.9Zm-810-89c16.563-19.485,40.768-26.7,61.309-25.83a77.162,77.162,0,0,1,64.315,39.606c8.474,15.558,15.84,43.228-1.2,70.029-16.643,26.174-44.816,33.131-63.113,33.293-32.6.289-63.67-20.142-73.931-50.513C39.54,715.367,39.49,689.013,58.285,666.9Zm1.186-296.921c17.77-21.8,43.738-29.875,65.776-28.9,31.234,1.381,56.537,20.454,69,44.315,9.091,17.408,16.993,48.367-1.29,78.355-17.855,29.284-48.08,37.068-67.71,37.25-34.974.324-68.309-22.537-79.317-56.518C39.361,424.208,39.308,394.72,59.472,369.981Zm499-81c17.769-21.8,43.737-29.875,65.775-28.9,31.234,1.381,56.537,20.454,69,44.315,9.092,17.408,16.994,48.367-1.289,78.355-17.855,29.285-48.08,37.068-67.71,37.25-34.974.324-68.309-22.537-79.317-56.518C538.361,343.208,538.308,313.72,558.472,288.981ZM392.635,25.178C408.537,6.238,431.775-.777,451.5.07a74,74,0,0,1,61.747,38.5c8.136,15.123,15.207,42.019-1.154,68.071C496.111,132.08,469.063,138.842,451.5,139c-31.3.281-61.129-19.579-70.98-49.1C374.639,72.287,374.591,46.669,392.635,25.178Zm149,1094c15.9-18.94,39.14-25.96,58.862-25.11a74,74,0,0,1,61.747,38.5c8.136,15.12,15.207,42.02-1.154,68.07-15.979,25.44-43.027,32.2-60.593,32.36-31.3.28-61.129-19.58-70.981-49.1C523.639,1166.29,523.59,1140.67,541.635,1119.18Zm192.9-121.436a52.287,52.287,0,0,1,43.445-19.689c20.631,0.94,37.344,13.934,45.575,30.185,6.005,11.86,11.225,32.95-.852,53.38-11.793,19.95-31.757,25.26-44.723,25.38-23.1.22-45.118-15.35-52.39-38.5C721.257,1034.69,721.222,1014.6,734.54,997.744Zm0-211a52.287,52.287,0,0,1,43.445-19.689c20.631,0.94,37.344,13.934,45.575,30.189,6.005,11.859,11.225,32.95-.852,53.379-11.793,19.951-31.757,25.253-44.723,25.377-23.1.221-45.118-15.353-52.39-38.5C721.257,823.685,721.222,803.6,734.54,786.744Zm-134-88a52.287,52.287,0,0,1,43.445-19.689c20.631,0.94,37.344,13.934,45.575,30.189,6.005,11.859,11.225,32.95-.852,53.379-11.793,19.95-31.757,25.253-44.723,25.377-23.1.221-45.118-15.353-52.389-38.5C587.257,735.685,587.222,715.6,600.54,698.744Zm210-262a52.287,52.287,0,0,1,43.445-19.689c20.631,0.94,37.344,13.934,45.575,30.189,6.005,11.859,11.225,32.95-.852,53.379-11.793,19.95-31.757,25.253-44.723,25.377-23.1.221-45.118-15.353-52.389-38.5C797.257,473.685,797.222,453.6,810.54,436.744Zm-793,99a52.287,52.287,0,0,1,43.445-19.689c20.631,0.94,37.343,13.934,45.575,30.189,6,11.859,11.225,32.95-.852,53.379C93.915,619.573,73.951,624.876,60.985,625c-23.1.221-45.118-15.353-52.39-38.5C4.257,572.685,4.222,552.6,17.54,535.744Zm556-519A52.288,52.288,0,0,1,616.985-2.945C637.616-2,654.329,10.989,662.56,27.244c6.005,11.859,11.225,32.95-.852,53.379-11.793,19.95-31.757,25.253-44.723,25.377-23.1.221-45.118-15.353-52.39-38.5C560.257,53.685,560.222,33.6,573.54,16.744Zm325,193a52.287,52.287,0,0,1,43.445-19.689c20.631,0.94,37.344,13.934,45.575,30.189,6.005,11.859,11.225,32.95-.852,53.379-11.793,19.95-31.757,25.253-44.723,25.377-23.1.221-45.118-15.353-52.389-38.5C885.257,246.685,885.222,226.6,898.54,209.744Zm-441,530a52.287,52.287,0,0,1,43.445-19.689c20.631,0.94,37.344,13.934,45.575,30.189,6.005,11.859,11.225,32.95-.852,53.379-11.793,19.95-31.757,25.253-44.723,25.377-23.1.221-45.118-15.353-52.389-38.5C444.257,776.685,444.222,756.6,457.54,739.744Zm-243.51,6.92c10.2-12.535,25.109-17.178,37.761-16.618A47.367,47.367,0,0,1,291.4,755.527c5.219,10.01,9.756,27.811-.741,45.054C280.412,817.42,263.06,821.9,251.791,822c-20.078.186-39.215-12.958-45.535-32.5C202.485,777.844,202.454,760.889,214.03,746.664ZM497.286,859.551c27.751-35.018,68.306-47.987,102.723-46.422,48.78,2.218,88.3,32.854,107.759,71.181,14.2,27.961,26.539,77.689-2.014,125.86-27.885,47.04-75.089,59.54-105.745,59.83-54.619.52-106.679-36.2-123.872-90.782C465.879,946.652,465.8,899.288,497.286,859.551ZM152.4,178.306c23.8-29.568,58.58-40.518,88.1-39.2,41.833,1.873,75.723,27.74,92.414,60.1,12.177,23.609,22.76,65.6-1.727,106.268C307.269,345.2,266.787,355.753,240.5,356c-46.842.439-91.489-30.565-106.233-76.652C125.466,251.85,125.394,211.858,152.4,178.306ZM175,500c27.556-33.945,67.825-46.517,102-45,48.436,2.15,87.674,31.847,107,69,14.1,27.1,26.353,75.308-2,122-27.688,45.6-74.56,57.717-105,58-54.235.5-105.928-35.09-123-88C143.814,584.432,143.731,538.519,175,500Zm422.4-38.245a105.241,105.241,0,0,1,88.107-40.642c41.838,1.942,75.732,28.763,92.425,62.318,12.178,24.479,22.763,68.015-1.727,110.186C752.291,634.8,711.8,645.744,685.51,646c-46.848.455-91.5-31.692-106.246-79.478C570.465,538.011,570.393,496.544,597.4,461.755ZM821.3,899.576c8.446-10.22,20.789-14.006,31.264-13.549a39.253,39.253,0,0,1,32.8,20.776c4.321,8.161,8.077,22.675-.613,36.733-8.487,13.73-22.853,17.379-32.183,17.464-16.623.152-32.468-10.565-37.7-26.5A36.716,36.716,0,0,1,821.3,899.576ZM322.275,986.482c9.433-10.9,23.219-14.94,34.918-14.453a44.031,44.031,0,0,1,36.629,22.161c4.827,8.7,9.022,24.19-.684,39.18-9.479,14.65-25.525,18.54-35.945,18.63-18.566.16-36.263-11.27-42.107-28.26A37.769,37.769,0,0,1,322.275,986.482Zm39-286c9.433-10.9,23.219-14.94,34.918-14.453a44.031,44.031,0,0,1,36.629,22.161c4.827,8.7,9.022,24.186-.684,39.182-9.479,14.645-25.525,18.537-35.945,18.628-18.566.162-36.263-11.27-42.107-28.263A37.764,37.764,0,0,1,361.275,700.482Zm365-352c9.433-10.9,23.219-14.94,34.918-14.453a44.033,44.033,0,0,1,36.629,22.161c4.827,8.7,9.022,24.186-.684,39.182-9.479,14.645-25.525,18.537-35.945,18.628-18.566.162-36.263-11.27-42.107-28.263A37.764,37.764,0,0,1,726.275,348.482Zm-450,18c9.433-10.9,23.219-14.94,34.918-14.453a44.031,44.031,0,0,1,36.629,22.161c4.827,8.7,9.022,24.186-.684,39.182-9.479,14.645-25.525,18.537-35.945,18.628-18.567.162-36.263-11.27-42.107-28.263A37.764,37.764,0,0,1,276.275,366.482Zm546-53c9.433-10.9,23.219-14.94,34.918-14.453a44.031,44.031,0,0,1,36.629,22.161c4.827,8.7,9.022,24.186-.684,39.182-9.479,14.645-25.525,18.537-35.945,18.628-18.566.162-36.263-11.27-42.107-28.263A37.764,37.764,0,0,1,822.275,313.482ZM1031.09,515.12a36.329,36.329,0,0,1,30.45-14.092c14.46,0.673,26.17,9.973,31.94,21.607,4.21,8.487,7.87,23.582-.59,38.2A36.337,36.337,0,0,1,1061.54,579c-16.19.158-31.62-10.988-36.72-27.556C1021.78,541.558,1021.75,527.181,1031.09,515.12Zm-915,303a36.323,36.323,0,0,1,30.451-14.092C161,804.7,172.715,814,178.484,825.635c4.21,8.487,7.868,23.582-.6,38.2A36.331,36.331,0,0,1,146.54,882c-16.191.158-31.624-10.988-36.721-27.556C106.778,844.558,106.753,830.181,116.089,818.12Zm580.97,298.63a40.747,40.747,0,0,1,34.106-15.72c16.2,0.75,29.316,11.12,35.778,24.1,4.714,9.47,8.811,26.3-.669,42.61-9.258,15.93-24.931,20.16-35.109,20.26-18.134.18-35.419-12.26-41.127-30.74C686.632,1146.24,686.6,1130.2,697.059,1116.75ZM986.03,642.016a45.6,45.6,0,0,1,37.76-16.982c17.93,0.811,32.46,12.018,39.61,26.039,5.22,10.228,9.76,28.419-.74,46.039-10.25,17.208-27.6,21.781-38.87,21.888a47.972,47.972,0,0,1-45.534-33.209C974.485,673.878,974.454,656.552,986.03,642.016ZM212.04,916.775a28.058,28.058,0,0,1,22.737-9.756,28.571,28.571,0,0,1,23.851,14.959c3.143,5.876,5.875,16.326-.445,26.448-6.173,9.885-16.621,12.513-23.406,12.574-12.09.109-23.613-7.607-27.419-19.077A26.225,26.225,0,0,1,212.04,916.775Zm536-230a28.054,28.054,0,0,1,22.737-9.755,28.568,28.568,0,0,1,23.851,14.958c3.143,5.876,5.875,16.326-.445,26.448-6.172,9.885-16.621,12.513-23.406,12.574-12.09.109-23.613-7.607-27.419-19.077A26.225,26.225,0,0,1,748.04,686.775ZM277.794,84.585a30.822,30.822,0,0,1,25.58-11.562c12.147,0.552,21.986,8.183,26.833,17.728,3.536,6.964,6.609,19.349-.5,31.346-6.943,11.715-18.7,14.829-26.331,14.9A32.507,32.507,0,0,1,277.794,84.585ZM546.6,140.93a44.069,44.069,0,0,1,36.135-15.9,45.327,45.327,0,0,1,37.908,24.377c4.994,9.575,9.336,26.605-.709,43.1-9.809,16.109-26.414,20.391-37.2,20.491-19.214.178-37.527-12.4-43.575-31.089C535.55,170.758,535.521,154.538,546.6,140.93Z"/>
  <path class="cls-2" d="M331,1268H830q-9,79.995-18,160,7,76.995,14,154-244.5.495-489,1,6-79.995,12-160Q340,1345.5,331,1268Zm88,312a147.2,147.2,0,0,0,35,73c13.54,15.13,40.021,34.92,81,46,32.8,8.87,65.874,8.9,96,1,37.219-9.76,75.456-31.83,100-68a160.3,160.3,0,0,0,23-52H419Z"/>
</svg>
