<svg xmlns="http://www.w3.org/2000/svg" width="1688" height="1875" viewBox="0 0 1688 1875">
  <!--Designed by Fyissh Inc. (Tushar)-->
  <defs>
    <style>
      .cls-1 {
        fill: #596c76;
      }

      .cls-1, .cls-2, .cls-3 {
        fill-rule: evenodd;
      }

      .cls-2 {
        fill: #b6c4cf;
       
      }

      .cls-3 {
        fill: #99a5ab;
      }
    </style>
  </defs>
  <path class="cls-1" d="M116,1758c-3.125-138.43-3.1-274.48,0-415,3.223-146.11,11.818-282.01,58-451,53.884-197.171,143.381-358.893,208-439C499.323,307.557,654.319,198.654,832,132c152.772,55.964,289.26,143.963,400,261,81.08,85.694,199.88,269.726,266,515,45.18,167.58,51.98,301.81,54,483,1.36,122.11,1.37,241.57,0,363Q833.995,1756,116,1758Z"/>
  <path class="cls-2" d="M817,809l-98,46L550,946q-0.5,18-1,36l-130,36a112.276,112.276,0,0,1-41-107L529,765l-32-27a1191.128,1191.128,0,0,1,85-93q40.716-40.071,85-76l-29-53a534.075,534.075,0,0,0,111,15,533.918,533.918,0,0,0,97-6,407.238,407.238,0,0,1,155,20c64.99,21.706,117.45,56.082,157,97,32.37,33.489,60.7,76.185,81,128,40.16,102.537,34.6,216.032-4,320a1198.246,1198.246,0,0,1-145,236q-49.005-4.005-98-8a179.168,179.168,0,0,0,21,53c17.12,28.64,39.59,47.86,70,67,28.49,17.93,65.34,35.35,80,41,37.72,14.54,77.73,29.68,112,42q-0.495,34.005-1,68l-890,3q-0.5-48-1-96a921.483,921.483,0,0,0,379-208,1237.419,1237.419,0,0,1-135-41q-56.67-20.8-111-47a1240.559,1240.559,0,0,1,80-124c38.461-52.5,76.249-92.936,119-142C750.171,893.635,783.705,852.52,817,809Z"/>
  <path class="cls-3" d="M855,1099a140.2,140.2,0,0,0,47-47c14.417-23.86,19.077-44.88,19-59-0.06-10.966-6.009-34.616-14-57-2.334-6.539-7.546-21.169-4-38,2.893-13.732,9.927-22.723,16-30,12.374-14.827,26.23-30,41-45a145.647,145.647,0,0,0-7,37c-0.778,13.766.816,26.634,4,43,3.94,20.25,9.549,36.123,10,55a157.476,157.476,0,0,1-7,49c-6.013,20.11-14.573,36.43-22,46C918.062,1078.7,888.074,1093.96,855,1099Z"/>
  <path class="cls-3" d="M1115,833a175.772,175.772,0,0,0-44,43c-12.88,18.16-18.68,36.831-19,45-0.56,14.218,5.91,26.323,11.19,43.8,3.5,11.574,6.21,23.685,6.81,31.2,1.55,19.37-1.38,34.26-6,46-3.29,8.36-12.06,22.94-25,36a139.64,139.64,0,0,1-42,29,75.722,75.722,0,0,0,44,0c7.81-2.43,18.99-8.21,30.09-18.2,11.37-10.22,22.64-24.91,31.91-47.8,6.65-16.43,11.98-39.95,12-69,0.01-20.578-2.78-41.324-6-51-1.88-5.64-5.79-17.827-6-30-0.18-10.717,1.89-19.161,4-27C1109.43,854.978,1112.37,843.451,1115,833Z"/>
</svg>
