<svg xmlns="http://www.w3.org/2000/svg" width="314" height="300" viewBox="5, 0, 400,350">
  
 <g id="svgg"><path id="path0" d="M20.000 0.427 C 15.882 2.565,15.780 8.251,19.829 9.954 C 23.435 11.471,27.189 8.570,27.205 4.254 C 27.211 2.730,27.183 2.665,26.599 2.822 C 26.262 2.912,25.833 2.987,25.646 2.989 C 25.450 2.992,25.306 3.342,25.306 3.818 C 25.306 4.672,24.707 6.349,24.172 6.994 C 23.927 7.289,23.769 7.148,23.386 6.293 C 22.864 5.125,21.000 3.816,19.840 3.802 C 18.803 3.789,20.636 2.259,22.185 1.845 C 23.257 1.558,23.401 1.430,23.401 0.760 C 23.401 -0.152,21.478 -0.340,20.000 0.427 M282.628 0.184 C 282.137 0.675,282.786 5.574,283.436 6.273 C 284.317 7.222,284.259 7.347,282.940 7.347 C 281.267 7.347,280.272 8.366,280.272 10.079 C 280.272 12.091,281.738 13.307,283.796 13.005 L 284.592 12.888 284.061 13.634 C 281.738 16.897,272.703 10.636,274.012 6.671 C 274.441 5.371,275.102 4.862,275.102 5.831 C 275.102 8.814,279.262 9.879,280.674 7.258 C 282.955 3.022,274.972 0.549,272.520 4.732 C 270.846 7.590,271.426 10.000,274.528 13.067 C 280.510 18.981,287.223 17.812,286.699 10.948 L 286.527 8.698 287.612 9.383 C 290.389 11.136,293.324 8.850,291.839 6.091 C 291.573 5.597,291.315 4.744,291.266 4.194 C 291.151 2.918,291.104 2.880,289.706 2.953 C 288.825 2.998,288.414 2.877,288.036 2.459 C 287.123 1.450,285.918 1.897,285.866 3.265 C 285.857 3.490,285.566 3.714,285.218 3.763 C 284.614 3.849,284.594 3.798,284.772 2.610 C 285.098 0.439,283.819 -1.008,282.628 0.184 M34.939 1.316 C 34.355 1.740,33.251 2.811,32.485 3.697 C 30.659 5.807,27.861 9.129,26.667 10.606 C 26.143 11.253,25.286 12.272,24.762 12.869 C 19.640 18.708,19.302 20.454,22.685 23.586 C 27.835 28.355,29.365 28.188,34.267 22.325 C 36.429 19.738,36.485 19.575,35.451 18.897 L 34.711 18.413 33.614 19.729 C 28.981 25.291,28.347 25.564,25.435 23.261 C 21.990 20.537,21.799 19.395,24.339 16.702 C 24.497 16.535,25.128 15.800,25.743 15.070 C 26.357 14.339,27.684 12.762,28.691 11.565 C 29.699 10.367,30.728 9.143,30.978 8.844 C 36.917 1.738,36.872 1.769,39.135 3.325 C 42.597 5.705,43.507 7.219,42.517 8.952 C 41.632 10.501,43.209 11.598,44.309 10.200 C 45.913 8.160,45.077 5.492,42.050 2.993 C 38.756 0.275,36.955 -0.150,34.939 1.316 M181.947 2.674 C 181.202 3.497,181.412 3.919,183.333 5.462 C 184.344 6.273,185.310 7.068,185.480 7.228 C 185.651 7.389,186.192 7.858,186.683 8.271 C 187.564 9.013,187.570 9.032,187.121 9.791 C 186.450 10.927,186.726 13.333,187.527 13.333 C 188.082 13.333,187.668 14.300,186.699 15.270 C 184.543 17.426,182.623 16.273,183.018 13.061 C 183.478 9.318,183.068 7.942,181.265 7.189 C 178.514 6.039,175.209 9.442,176.297 12.304 C 176.755 13.509,178.231 13.035,178.231 11.683 C 178.231 9.740,179.110 8.704,180.408 9.115 C 181.179 9.360,181.354 10.408,181.001 12.680 C 180.062 18.715,186.134 20.700,189.155 15.346 C 189.611 14.538,190.137 13.878,190.324 13.878 C 190.856 13.878,191.541 12.975,191.731 12.023 C 191.850 11.431,192.061 11.156,192.399 11.156 C 192.671 11.156,192.969 11.034,193.061 10.884 C 193.154 10.735,193.454 10.612,193.728 10.612 C 194.458 10.612,194.618 9.892,194.253 8.259 C 193.947 6.892,193.891 6.823,193.223 6.986 C 192.410 7.185,192.099 7.549,192.299 8.071 C 192.403 8.342,192.130 8.435,191.235 8.435 C 189.975 8.435,190.048 8.487,183.195 2.696 C 182.447 2.064,182.499 2.065,181.947 2.674 M278.625 5.289 C 279.008 5.750,278.532 6.903,278.028 6.735 C 277.422 6.533,277.157 5.781,277.532 5.329 C 277.974 4.796,278.209 4.787,278.625 5.289 M21.358 6.849 C 22.563 8.282,22.069 8.886,20.399 8.023 C 19.572 7.595,18.638 6.156,18.906 5.723 C 19.163 5.307,20.626 5.979,21.358 6.849 M289.241 6.211 C 289.875 6.740,290.108 7.123,289.988 7.436 C 289.716 8.143,288.945 7.969,287.758 6.934 C 287.161 6.413,286.549 5.974,286.398 5.959 C 286.051 5.925,287.338 5.506,287.901 5.469 C 288.132 5.454,288.734 5.788,289.241 6.211 M283.807 9.656 C 284.259 10.201,283.958 10.884,283.265 10.884 C 282.957 10.884,282.633 10.699,282.546 10.473 C 282.390 10.065,282.869 9.252,283.265 9.252 C 283.378 9.252,283.622 9.434,283.807 9.656 M94.150 21.066 C 94.150 22.313,94.413 22.585,95.621 22.585 C 96.903 22.585,97.415 22.948,97.415 23.854 C 97.415 24.680,96.498 25.131,95.233 24.929 C 94.337 24.785,94.192 24.840,94.049 25.376 C 93.765 26.436,93.854 26.630,94.839 27.098 C 96.206 27.746,96.522 28.451,95.851 29.354 C 94.351 31.373,91.994 29.375,91.979 26.070 C 91.972 24.640,91.763 24.395,90.761 24.647 C 89.342 25.003,89.962 29.345,91.676 31.060 C 93.528 32.912,96.107 32.813,97.541 30.833 C 98.235 29.876,99.864 29.119,99.864 29.754 C 99.864 29.806,99.480 30.877,99.010 32.135 C 97.729 35.567,97.703 36.071,98.801 36.291 C 99.886 36.508,99.928 36.465,100.630 34.422 C 100.939 33.524,101.575 31.748,102.045 30.476 C 102.515 29.204,103.092 27.580,103.329 26.866 C 103.746 25.609,103.786 25.575,104.645 25.736 C 105.553 25.906,106.122 25.395,106.122 24.408 C 106.122 24.066,102.669 22.640,102.473 22.901 C 102.435 22.952,102.131 23.728,101.798 24.626 C 100.611 27.818,99.909 28.382,98.370 27.374 L 97.728 26.953 98.660 26.021 C 101.064 23.617,99.182 20.408,95.369 20.408 C 94.261 20.408,94.150 20.468,94.150 21.066 M353.806 21.813 C 353.381 22.238,353.382 22.456,353.815 22.906 C 354.005 23.103,354.569 23.908,355.068 24.694 C 355.567 25.480,356.018 26.122,356.070 26.122 C 356.507 26.122,357.499 25.442,357.369 25.231 C 357.278 25.084,357.373 25.022,357.581 25.094 C 357.843 25.184,357.917 25.508,357.823 26.149 C 357.568 27.882,357.697 33.602,358.010 34.466 C 358.411 35.571,357.271 36.068,353.113 36.604 C 351.888 36.762,351.810 36.820,351.889 37.502 C 352.011 38.561,355.685 38.350,358.523 37.120 C 358.683 37.051,359.166 37.666,359.596 38.488 C 360.814 40.816,362.286 42.385,362.903 42.012 C 363.678 41.543,363.629 41.007,362.705 39.846 C 362.236 39.257,361.550 38.262,361.181 37.634 L 360.510 36.493 362.792 34.233 C 365.538 31.512,367.882 28.018,367.547 27.144 C 367.468 26.937,366.808 26.570,366.082 26.330 C 365.356 26.089,363.721 25.508,362.449 25.038 C 357.787 23.316,357.551 23.272,357.551 24.127 C 357.551 24.795,357.105 24.436,356.144 22.993 C 355.223 21.609,354.417 21.202,353.806 21.813 M352.041 25.872 C 351.353 26.273,351.441 26.650,352.585 28.202 C 353.146 28.964,353.729 29.798,353.880 30.056 C 354.115 30.458,354.258 30.477,354.887 30.190 C 355.743 29.800,355.579 29.290,353.819 26.871 C 352.808 25.480,352.760 25.453,352.041 25.872 M364.276 27.519 C 364.757 27.660,365.216 27.881,365.296 28.011 C 365.662 28.603,360.848 34.286,359.981 34.286 C 359.379 34.286,359.032 28.428,359.528 26.623 L 359.726 25.898 361.564 26.580 C 362.574 26.956,363.795 27.378,364.276 27.519 M351.966 32.721 C 350.378 34.074,349.170 34.932,348.503 35.180 C 347.968 35.379,347.871 36.198,348.328 36.655 C 349.175 37.501,354.818 33.358,354.440 32.168 C 354.158 31.277,353.485 31.427,351.966 32.721 M190.167 48.280 L 188.481 50.301 187.687 49.300 C 186.599 47.929,186.194 47.742,185.559 48.317 C 184.843 48.964,184.899 49.489,185.782 50.413 L 186.531 51.197 185.773 51.751 C 184.465 52.706,183.859 54.266,183.730 57.007 C 183.551 60.834,184.182 62.619,185.521 62.065 L 186.330 61.730 185.954 60.481 C 184.271 54.891,188.054 49.896,190.635 54.300 C 191.385 55.580,191.530 58.134,190.978 60.328 C 190.442 62.457,192.118 63.136,192.854 61.088 C 193.954 58.023,193.156 53.447,191.240 51.834 L 190.432 51.154 191.243 50.135 C 191.690 49.574,192.373 48.819,192.762 48.456 C 193.599 47.675,193.642 47.316,192.972 46.709 C 192.190 46.002,191.961 46.130,190.167 48.280 M197.007 51.695 C 197.007 52.365,197.193 52.601,198.079 53.053 C 200.914 54.499,201.906 58.699,199.793 60.304 C 198.628 61.188,196.628 60.068,196.306 58.351 C 196.071 57.101,195.325 57.100,194.874 58.349 C 193.842 61.203,198.008 63.742,200.911 62.029 C 204.271 60.047,203.158 53.316,199.140 51.311 C 197.728 50.607,197.007 50.737,197.007 51.695 M277.849 63.905 C 277.375 64.278,277.201 64.673,277.220 65.337 C 277.289 67.765,280.834 67.847,280.808 65.421 C 280.790 63.770,279.112 62.910,277.849 63.905 M277.576 68.809 C 275.892 69.280,275.297 70.693,275.158 74.554 L 275.030 78.095 273.025 78.095 L 271.020 78.095 271.020 73.469 L 271.020 68.844 269.796 68.844 L 268.571 68.844 268.571 74.558 L 268.571 80.272 271.837 80.272 C 275.474 80.272,275.707 80.416,274.354 81.826 C 273.942 82.255,273.450 82.846,273.260 83.140 C 272.940 83.634,272.935 83.629,273.192 83.079 C 273.597 82.212,273.543 81.954,272.801 81.212 C 271.298 79.709,268.299 80.890,268.299 82.986 C 268.299 86.449,273.295 87.203,275.599 84.088 C 276.205 83.268,276.217 83.265,278.920 83.265 L 281.633 83.265 281.633 82.177 L 281.633 81.088 279.592 81.088 C 277.959 81.088,277.551 81.007,277.551 80.680 C 277.551 80.338,278.124 80.272,281.078 80.272 L 284.605 80.272 284.906 79.153 C 286.695 72.510,282.997 67.292,277.576 68.809 M281.361 71.543 C 282.295 72.204,282.688 73.499,282.706 75.986 L 282.721 78.095 280.107 78.095 L 277.492 78.095 277.592 74.940 C 277.725 70.757,278.834 69.757,281.361 71.543 M347.165 79.040 C 346.673 80.120,347.237 80.542,349.075 80.469 C 350.587 80.409,350.614 80.394,350.696 79.547 C 350.789 78.587,349.957 78.054,349.263 78.630 C 349.008 78.842,348.837 78.849,348.716 78.653 C 348.390 78.126,347.477 78.354,347.165 79.040 M131.837 80.025 C 129.769 81.220,130.422 84.081,132.859 84.508 C 133.791 84.671,133.974 84.593,134.957 83.611 L 136.033 82.534 136.452 83.417 C 136.994 84.560,136.979 84.866,136.327 85.850 C 135.652 86.869,135.642 87.266,136.288 87.471 C 138.458 88.160,139.390 83.976,137.526 81.913 C 135.938 80.155,133.190 79.243,131.837 80.025 M348.481 81.020 C 346.571 84.209,346.226 85.896,347.223 87.164 C 349.044 89.479,352.627 87.289,351.835 84.346 C 351.404 82.746,348.922 80.285,348.481 81.020 M133.741 82.177 C 133.248 83.130,132.631 83.237,132.370 82.415 C 132.161 81.756,132.592 81.371,133.544 81.365 C 134.145 81.361,134.151 81.385,133.741 82.177 M342.289 81.981 C 339.933 83.569,340.142 85.940,342.715 86.801 L 343.993 87.228 343.490 87.849 C 341.776 89.966,338.597 88.404,338.826 85.557 C 338.945 84.075,337.604 83.749,337.316 85.190 C 336.605 88.745,338.439 90.969,341.681 90.483 C 345.805 89.865,347.135 86.184,343.653 85.027 C 342.193 84.542,341.980 84.074,342.918 83.417 C 343.672 82.888,343.803 82.889,344.341 83.428 C 345.257 84.344,346.207 83.170,345.466 82.039 C 344.889 81.158,343.546 81.134,342.289 81.981 M64.327 82.423 C 62.020 83.471,61.513 85.052,61.503 91.224 L 61.497 95.510 69.529 95.510 L 77.561 95.510 77.488 88.912 L 77.415 82.313 76.395 82.228 L 75.374 82.144 75.374 87.875 L 75.374 93.605 69.524 93.605 L 63.673 93.605 63.673 92.109 L 63.673 90.612 67.787 90.612 L 71.900 90.612 71.792 87.927 C 71.593 82.980,68.356 80.593,64.327 82.423 M271.646 83.483 C 272.226 83.764,272.222 83.773,271.497 83.791 C 270.850 83.807,270.753 83.708,270.780 83.061 C 270.797 82.650,270.864 82.511,270.929 82.753 C 270.994 82.996,271.316 83.324,271.646 83.483 M350.040 84.443 C 350.585 85.173,350.585 85.182,350.056 85.692 C 348.940 86.769,347.780 85.450,348.637 84.077 C 349.050 83.417,349.327 83.489,350.040 84.443 M68.268 84.525 C 69.054 85.076,69.660 86.478,69.660 87.746 L 69.660 88.707 66.629 88.707 L 63.598 88.707 63.763 87.313 C 64.090 84.547,66.325 83.165,68.268 84.525 M128.923 87.160 C 128.727 88.182,128.929 88.297,130.959 88.325 C 132.435 88.345,132.881 88.454,133.196 88.869 C 134.383 90.438,132.798 93.242,131.111 92.557 C 128.469 91.486,127.638 92.777,130.190 93.989 C 133.626 95.619,136.782 91.995,134.988 88.478 C 134.063 86.665,129.219 85.612,128.923 87.160 M125.896 88.345 C 125.193 89.048,126.230 90.543,127.170 90.182 C 128.189 89.791,127.812 88.163,126.702 88.163 C 126.359 88.163,125.995 88.245,125.896 88.345 M339.951 91.380 C 338.940 92.393,339.648 93.013,341.834 93.031 C 343.173 93.042,343.931 92.121,343.192 91.382 C 342.772 90.963,340.370 90.961,339.951 91.380 M196.589 108.590 L 195.763 108.829 194.898 115.703 C 193.977 123.024,193.986 123.157,195.405 122.789 C 196.299 122.558,196.333 122.497,196.598 120.689 L 196.871 118.828 199.117 118.216 L 201.364 117.605 202.477 119.192 C 203.089 120.065,203.731 120.736,203.904 120.684 C 204.076 120.632,204.554 120.516,204.966 120.426 C 205.984 120.203,205.940 120.039,204.171 117.475 C 203.322 116.245,202.164 114.565,201.598 113.741 C 197.530 107.826,197.904 108.210,196.589 108.590 M199.168 114.145 C 200.437 115.973,200.513 115.832,198.008 116.300 L 196.969 116.494 197.136 115.186 C 197.598 111.565,197.436 111.648,199.168 114.145 M22.057 116.206 C 17.274 123.979,20.862 133.282,27.563 130.482 C 30.088 129.427,30.807 125.074,28.686 123.684 L 28.039 123.261 28.610 122.245 C 30.324 119.193,28.314 116.028,25.224 116.914 C 23.417 117.432,22.444 120.078,23.939 120.407 C 24.909 120.620,25.306 120.420,25.306 119.721 C 25.306 119.048,26.194 118.548,26.625 118.979 C 27.490 119.843,26.598 121.883,24.797 123.161 C 23.643 123.979,23.539 124.545,24.381 125.431 C 24.675 125.740,24.830 125.755,25.086 125.499 C 26.003 124.582,27.755 125.432,27.755 126.792 C 27.755 128.669,25.155 129.627,23.664 128.299 C 21.377 126.264,21.547 120.354,23.987 117.036 L 24.864 115.843 24.239 115.337 C 23.299 114.575,22.983 114.701,22.057 116.206 M100.845 147.369 C 100.026 149.505,101.020 150.905,104.016 151.835 C 105.072 152.163,106.147 153.396,105.125 153.108 C 103.796 152.733,98.832 151.230,98.231 151.020 C 97.857 150.889,96.449 150.454,95.102 150.053 C 90.351 148.638,89.108 148.254,88.352 147.967 C 87.438 147.619,87.077 147.889,86.996 148.980 C 86.947 149.635,87.068 149.782,87.823 149.984 C 88.431 150.146,88.707 150.383,88.707 150.741 C 88.707 151.028,89.259 151.790,89.934 152.434 C 90.937 153.392,91.191 153.834,91.326 154.857 L 91.491 156.108 90.257 156.081 C 89.303 156.060,88.865 156.204,88.321 156.714 C 86.627 158.306,88.302 160.581,90.865 160.171 C 92.097 159.974,92.662 160.630,93.572 163.313 C 94.540 166.171,95.162 165.659,96.606 160.816 C 98.653 153.957,98.840 153.454,99.293 153.584 C 99.532 153.653,100.243 153.842,100.873 154.005 C 102.308 154.375,102.444 154.597,101.737 155.407 C 99.661 157.785,98.611 162.756,99.665 165.220 C 100.446 167.049,102.873 167.696,103.926 166.358 C 105.125 164.833,104.117 163.000,102.280 163.367 C 100.587 163.706,101.662 159.069,103.792 156.845 C 105.019 155.564,105.624 155.406,107.200 155.955 C 107.911 156.203,108.133 156.190,108.324 155.887 C 108.702 155.291,108.610 154.284,108.163 154.112 C 107.916 154.017,107.755 153.606,107.755 153.072 C 107.755 151.800,106.730 150.432,105.438 149.980 C 102.708 149.025,102.795 149.086,102.960 148.261 C 103.188 147.122,101.253 146.306,100.845 147.369 M94.777 152.154 C 96.404 152.667,96.628 152.816,96.514 153.310 C 96.443 153.622,95.968 155.261,95.460 156.952 L 94.536 160.027 93.798 158.900 C 93.392 158.280,93.132 157.656,93.221 157.513 C 93.567 156.952,93.374 153.521,92.949 152.699 C 92.242 151.332,92.205 151.342,94.777 152.154 M305.924 152.684 C 303.934 153.259,302.977 156.542,304.210 158.564 C 305.688 160.988,309.891 160.557,310.771 157.891 L 311.077 156.965 311.720 157.569 L 312.363 158.174 311.679 158.987 C 308.535 162.723,309.605 167.891,313.523 167.891 C 317.295 167.891,318.734 163.333,316.276 159.172 L 315.790 158.348 318.085 156.216 L 320.381 154.084 319.925 153.389 C 319.014 151.997,318.489 152.138,316.225 154.378 L 314.150 156.434 312.587 154.959 C 310.141 152.652,308.259 152.009,305.924 152.684 M308.658 155.410 C 309.024 155.994,308.426 157.474,307.736 157.693 C 306.399 158.117,305.580 156.425,306.584 155.315 C 307.129 154.713,308.255 154.765,308.658 155.410 M374.150 160.376 L 374.150 162.449 370.476 162.449 L 366.803 162.449 366.803 163.401 L 366.803 164.354 369.796 164.354 C 371.442 164.354,372.789 164.424,372.789 164.509 C 372.789 165.443,369.206 169.446,366.936 171.049 C 366.168 171.591,366.145 171.661,366.510 172.342 C 367.023 173.301,367.567 173.249,369.077 172.096 L 370.340 171.132 370.340 171.824 C 370.340 172.501,370.385 172.517,372.245 172.517 L 374.150 172.517 374.150 174.286 L 374.150 176.054 375.102 176.054 L 376.054 176.054 376.054 174.286 L 376.054 172.517 377.805 172.517 C 379.472 172.517,379.560 172.484,379.642 171.832 L 379.728 171.146 381.146 172.104 C 382.783 173.210,382.891 173.231,383.495 172.564 C 384.191 171.795,384.079 171.602,382.064 170.104 C 380.493 168.936,377.143 165.128,377.143 164.510 C 377.143 164.424,378.551 164.354,380.272 164.354 L 383.401 164.354 383.401 163.401 L 383.401 162.449 379.691 162.449 L 375.981 162.449 376.118 160.544 C 376.234 158.916,376.190 158.639,375.814 158.636 C 375.572 158.634,375.099 158.558,374.762 158.468 C 374.166 158.308,374.150 158.360,374.150 160.376 M314.722 161.521 C 315.910 164.366,313.582 167.233,312.324 164.474 C 311.957 163.667,312.366 162.071,313.219 160.987 C 313.877 160.150,314.196 160.263,314.722 161.521 M374.150 168.571 L 374.150 170.612 372.494 170.612 L 370.838 170.612 371.977 169.320 C 372.603 168.609,373.290 167.690,373.504 167.279 C 374.075 166.176,374.150 166.324,374.150 168.571 M378.228 169.472 C 379.158 170.564,379.130 170.612,377.567 170.612 L 376.054 170.612 376.054 168.670 L 376.054 166.728 376.873 167.786 C 377.323 168.368,377.933 169.127,378.228 169.472 M168.707 176.050 C 167.568 176.511,166.782 176.804,162.857 178.231 C 162.034 178.531,160.687 179.020,159.864 179.320 C 159.041 179.619,157.694 180.109,156.871 180.408 C 153.244 181.727,152.487 181.999,152.008 182.155 C 151.597 182.289,151.532 182.490,151.673 183.193 C 151.949 184.575,152.282 184.647,154.411 183.787 C 154.926 183.579,154.924 183.605,154.369 184.546 L 153.794 185.520 154.345 186.434 C 156.418 189.874,159.075 192.701,161.198 193.729 C 165.147 195.640,169.800 193.015,169.793 188.881 C 169.787 184.984,165.466 180.741,164.763 183.941 C 164.556 184.885,163.236 186.395,162.619 186.395 C 161.512 186.395,161.010 183.611,161.813 181.926 C 162.242 181.027,162.993 180.405,162.993 180.949 C 162.993 181.701,165.597 182.721,167.517 182.721 L 169.456 182.721 169.490 184.244 C 169.565 187.575,172.601 192.925,174.416 192.925 C 175.569 192.925,175.573 191.039,174.422 189.731 C 172.660 187.729,172.141 186.358,172.019 183.374 C 171.894 180.310,171.350 179.612,169.497 180.144 C 167.727 180.651,165.137 180.351,165.776 179.712 C 165.942 179.546,170.358 177.924,171.088 177.760 C 171.755 177.611,171.889 176.915,171.419 176.037 C 171.075 175.394,170.320 175.397,168.707 176.050 M231.565 179.434 C 231.565 180.680,231.828 180.952,233.036 180.952 C 234.318 180.952,234.830 181.315,234.830 182.222 C 234.830 183.047,233.913 183.498,232.648 183.296 C 231.752 183.153,231.607 183.207,231.464 183.743 C 231.180 184.803,231.269 184.997,232.254 185.465 C 233.620 186.113,233.937 186.819,233.266 187.721 C 231.766 189.740,229.409 187.742,229.394 184.438 C 229.387 183.007,229.178 182.763,228.176 183.014 C 226.757 183.370,227.377 187.713,229.091 189.427 C 230.943 191.280,233.522 191.180,234.956 189.200 C 235.650 188.244,237.279 187.487,237.279 188.121 C 237.279 188.173,236.895 189.245,236.425 190.502 C 235.144 193.935,235.118 194.439,236.216 194.658 C 237.301 194.875,237.343 194.832,238.045 192.789 C 238.354 191.891,238.990 190.116,239.460 188.844 C 239.930 187.571,240.507 185.947,240.744 185.234 C 241.161 183.976,241.201 183.942,242.060 184.103 C 242.968 184.274,243.537 183.762,243.537 182.776 C 243.537 182.433,240.084 181.007,239.888 181.269 C 239.850 181.319,239.546 182.095,239.213 182.993 C 238.026 186.186,237.324 186.749,235.785 185.741 L 235.142 185.320 236.075 184.388 C 238.478 181.984,236.597 178.776,232.784 178.776 C 231.676 178.776,231.565 178.836,231.565 179.434 M159.682 186.865 C 160.878 189.177,163.739 189.548,165.688 187.645 C 166.928 186.434,167.438 186.746,167.438 188.718 C 167.438 191.054,164.980 192.475,162.543 191.549 C 160.481 190.765,154.514 183.752,155.574 183.359 C 155.838 183.261,156.667 182.945,157.415 182.657 L 158.776 182.133 158.931 183.924 C 159.021 184.960,159.337 186.199,159.682 186.865 M36.857 207.557 C 35.044 208.879,34.680 211.912,36.220 212.873 C 36.799 213.234,38.157 212.294,37.913 211.701 C 37.006 209.487,38.448 208.008,39.953 209.609 C 40.938 210.658,41.066 210.494,36.323 214.274 C 34.828 215.465,33.471 216.571,33.307 216.731 C 33.142 216.890,32.377 217.502,31.606 218.090 C 30.132 219.214,29.958 219.652,30.632 220.543 C 31.027 221.066,31.072 221.069,31.865 220.614 C 32.666 220.154,32.722 220.160,33.961 220.819 C 34.661 221.192,35.585 221.497,36.013 221.497 C 36.562 221.497,36.751 221.607,36.650 221.870 C 36.117 223.257,36.148 224.720,36.715 225.024 C 38.659 226.064,42.348 225.433,43.766 223.817 L 44.597 222.871 45.127 223.544 C 45.892 224.517,48.041 223.801,47.443 222.773 C 47.262 222.462,45.192 219.872,44.900 219.592 C 44.345 219.059,40.544 214.123,40.544 213.936 C 40.544 212.903,42.238 212.297,42.797 213.129 C 43.023 213.466,43.435 213.987,43.713 214.286 C 43.991 214.586,45.195 216.055,46.389 217.551 C 49.346 221.257,49.315 221.224,49.814 221.224 C 50.261 221.224,51.156 220.414,51.156 220.009 C 51.156 219.823,48.368 216.199,47.904 215.782 C 47.778 215.669,45.160 212.380,44.275 211.224 C 44.104 211.001,44.133 210.742,44.360 210.468 C 44.625 210.150,44.634 209.894,44.400 209.380 C 44.088 208.696,43.175 208.466,42.851 208.990 C 42.752 209.150,42.242 208.782,41.672 208.139 C 40.274 206.564,38.511 206.351,36.857 207.557 M39.268 218.272 C 38.153 219.159,36.809 219.481,35.729 219.121 C 34.519 218.717,34.724 218.193,36.672 216.708 L 38.493 215.320 39.360 216.415 L 40.226 217.511 39.268 218.272 M42.398 220.125 C 43.341 221.401,42.873 222.403,41.003 223.111 C 38.594 224.024,38.097 222.629,40.089 220.549 C 41.480 219.098,41.619 219.072,42.398 220.125 M315.409 222.448 C 311.346 223.715,310.332 230.325,313.880 232.418 C 314.576 232.829,314.780 233.084,314.575 233.289 C 314.050 233.814,314.265 234.563,315.034 234.887 L 315.782 235.202 314.697 235.356 C 312.682 235.642,313.133 236.995,315.246 237.003 C 317.386 237.011,318.322 235.277,316.959 233.827 L 316.368 233.197 317.163 233.196 C 318.858 233.193,320.043 232.675,319.844 232.024 C 319.517 230.959,319.225 230.775,318.287 231.043 C 316.068 231.680,314.309 230.458,314.084 228.123 C 313.827 225.444,315.195 224.036,317.793 224.308 C 319.297 224.465,319.392 224.439,319.691 223.781 C 320.332 222.374,317.987 221.644,315.409 222.448 M266.667 250.748 L 266.667 254.422 265.714 254.422 L 264.762 254.422 264.762 252.938 C 264.762 248.664,261.033 246.148,257.247 247.868 C 255.809 248.521,255.238 249.356,255.238 250.805 C 255.238 254.411,260.507 254.961,261.374 251.445 C 261.778 249.805,262.437 250.612,262.444 252.757 L 262.449 254.286 256.544 254.422 C 249.976 254.573,249.924 254.588,249.970 256.353 C 250.085 260.709,260.528 261.491,263.384 257.357 C 264.019 256.438,264.197 256.346,265.361 256.337 L 266.640 256.327 266.721 257.891 L 266.803 259.456 267.786 259.538 C 268.743 259.618,268.774 259.590,268.945 258.522 C 269.150 257.239,270.323 256.190,270.767 256.892 C 271.943 258.749,269.156 260.868,266.332 260.264 C 264.936 259.965,264.498 259.487,265.468 259.319 C 266.981 259.056,266.771 257.415,265.224 257.415 C 262.186 257.415,261.574 260.396,264.327 261.780 C 268.807 264.032,274.738 260.005,272.895 255.961 C 272.381 254.832,269.968 254.222,269.170 255.020 C 268.916 255.274,268.844 254.428,268.844 251.211 L 268.844 247.075 267.755 247.075 L 266.667 247.075 266.667 250.748 M372.109 248.018 C 371.061 248.368,370.216 248.788,370.231 248.953 C 370.246 249.117,370.277 249.435,370.299 249.660 C 370.355 250.217,371.135 250.172,373.138 249.499 C 375.168 248.817,375.033 248.933,374.814 248.059 C 374.600 247.208,374.537 247.207,372.109 248.018 M258.993 249.850 C 259.861 250.718,258.740 252.216,257.703 251.574 C 257.039 251.164,257.571 249.524,258.367 249.524 C 258.532 249.524,258.814 249.671,258.993 249.850 M366.437 253.831 C 366.189 254.105,365.986 254.466,365.986 254.633 C 365.986 254.800,365.680 255.513,365.306 256.217 C 363.591 259.442,365.870 262.561,368.889 261.122 C 371.297 259.973,371.134 256.989,368.526 254.490 C 367.157 253.177,367.057 253.146,366.437 253.831 M121.240 254.754 C 120.549 255.741,120.679 256.871,121.483 256.871 C 121.850 256.871,122.260 256.673,122.396 256.432 C 122.592 256.080,122.754 256.053,123.208 256.296 C 124.609 257.046,125.986 256.377,125.986 254.947 C 125.986 254.116,124.548 253.703,124.295 254.461 C 124.218 254.694,124.046 254.694,123.610 254.461 C 122.688 253.967,121.706 254.089,121.240 254.754 M368.645 258.204 C 368.549 259.058,367.780 259.555,367.161 259.164 C 366.219 258.570,366.139 258.081,366.806 257.002 L 367.442 255.973 368.080 256.762 C 368.443 257.209,368.687 257.834,368.645 258.204 M260.617 256.998 C 259.341 258.121,255.034 258.299,253.117 257.308 C 251.514 256.479,252.093 256.326,256.803 256.335 L 261.361 256.344 260.617 256.998 M119.365 257.596 C 119.265 257.696,119.184 259.839,119.184 262.358 L 119.184 266.939 120.408 266.939 L 121.633 266.939 121.633 264.094 C 121.633 260.987,121.890 260.082,122.903 259.621 C 124.541 258.874,125.170 260.069,125.170 263.928 L 125.170 266.939 126.395 266.939 L 127.619 266.939 127.619 263.909 C 127.619 260.377,127.281 258.997,126.190 258.079 C 125.239 257.279,122.950 257.149,121.965 257.839 C 121.418 258.222,121.361 258.222,121.361 257.839 C 121.361 257.405,119.751 257.210,119.365 257.596 M329.523 284.355 C 328.877 285.563,329.211 285.879,331.973 286.673 C 338.300 288.493,338.985 288.754,338.843 289.294 C 338.746 289.666,338.571 289.768,338.264 289.631 C 338.021 289.523,337.245 289.416,336.538 289.392 C 335.758 289.367,335.052 289.167,334.739 288.885 C 332.258 286.639,328.435 288.708,328.435 292.296 C 328.435 294.657,331.127 296.169,332.919 294.814 C 334.309 293.764,333.280 291.333,331.518 291.503 C 330.766 291.576,330.687 291.524,330.912 291.106 C 331.703 289.627,333.652 290.179,333.827 291.932 C 333.915 292.824,334.209 292.948,335.442 292.618 C 335.802 292.521,336.054 292.242,336.054 291.941 C 336.054 291.285,336.910 291.264,337.491 291.906 C 337.961 292.426,338.059 291.969,336.206 297.891 C 335.543 300.009,335.597 300.215,336.899 300.542 C 337.805 300.769,337.589 301.301,340.321 292.109 C 340.543 291.361,340.791 290.473,340.871 290.136 C 341.050 289.379,341.634 289.361,342.806 290.075 C 343.433 290.457,343.661 290.767,343.558 291.094 C 343.130 292.458,341.958 296.315,341.721 297.143 C 341.572 297.667,341.212 298.829,340.921 299.726 C 340.425 301.263,340.421 301.377,340.861 301.699 C 342.053 302.571,342.509 302.185,343.270 299.660 C 343.665 298.350,344.094 296.973,344.225 296.599 C 344.355 296.224,344.726 295.000,345.048 293.878 C 345.745 291.453,345.989 291.103,346.906 291.211 C 347.638 291.297,348.386 290.339,348.122 289.651 C 347.990 289.306,345.908 288.606,345.432 288.746 C 345.288 288.788,344.909 288.678,344.590 288.501 C 343.773 288.047,341.235 287.226,334.694 285.301 C 334.020 285.103,332.643 284.695,331.632 284.394 C 329.845 283.863,329.787 283.861,329.523 284.355 M35.170 284.414 C 34.745 284.619,34.558 284.949,34.558 285.492 C 34.558 286.556,33.814 286.816,33.143 285.987 C 32.606 285.324,30.748 285.752,30.748 286.539 C 30.748 288.411,34.636 288.983,36.038 287.317 C 37.438 285.653,36.828 283.614,35.170 284.414 M37.836 287.776 C 37.319 288.000,36.850 288.229,36.795 288.284 C 36.740 288.340,36.361 290.068,35.953 292.126 L 35.212 295.867 34.764 294.532 C 33.031 289.372,33.040 289.383,31.441 290.112 C 30.539 290.523,30.446 290.074,32.663 296.054 C 33.135 297.327,33.634 298.753,33.772 299.225 C 34.099 300.336,34.507 300.466,35.822 299.877 L 36.898 299.395 37.555 295.680 C 38.297 291.483,38.264 291.487,39.603 295.469 C 40.438 297.953,40.689 298.191,41.934 297.675 C 42.939 297.259,42.920 296.989,41.649 293.605 C 41.171 292.333,40.591 290.741,40.359 290.068 C 39.400 287.282,39.263 287.157,37.836 287.776 M183.469 291.796 C 182.696 292.183,182.701 292.543,183.499 293.961 C 183.853 294.589,184.482 295.714,184.899 296.463 C 185.315 297.211,185.863 298.129,186.117 298.503 C 186.371 298.878,186.656 299.367,186.752 299.592 C 186.848 299.816,187.299 300.612,187.755 301.361 C 188.211 302.109,188.724 302.997,188.894 303.333 C 189.277 304.093,189.657 304.104,190.574 303.383 L 191.289 302.820 190.611 301.614 C 190.237 300.951,189.629 299.869,189.258 299.211 L 188.584 298.013 189.249 297.578 C 189.614 297.339,190.029 297.143,190.172 297.143 C 190.585 297.143,190.672 296.546,190.358 295.871 C 189.951 294.996,189.585 294.929,188.477 295.523 L 187.510 296.041 186.997 295.299 C 186.714 294.891,186.405 294.374,186.309 294.150 C 185.341 291.888,184.568 291.246,183.469 291.796 M178.367 294.983 C 177.619 295.429,176.486 296.061,175.850 296.387 C 174.579 297.038,174.486 297.269,175.125 298.182 C 175.441 298.632,175.715 298.750,176.146 298.620 C 176.937 298.381,176.474 298.841,175.238 299.522 C 174.103 300.147,173.950 300.646,174.635 301.491 L 175.143 302.119 176.692 301.127 C 178.478 299.985,178.835 299.884,178.025 300.748 C 174.768 304.225,179.354 307.912,183.440 305.101 C 186.716 302.847,185.874 298.586,182.198 298.819 C 180.447 298.930,180.466 298.848,182.431 297.820 C 184.086 296.955,184.092 296.945,183.622 295.915 C 183.257 295.112,182.501 295.151,181.241 296.036 C 180.858 296.305,180.116 296.727,179.592 296.974 C 179.068 297.221,178.871 297.268,179.155 297.079 C 180.782 295.993,180.990 295.684,180.622 294.900 C 180.188 293.975,180.051 293.980,178.367 294.983 M177.959 297.959 C 177.585 298.252,177.156 298.491,177.007 298.491 C 176.857 298.491,177.041 298.252,177.415 297.959 C 177.789 297.667,178.218 297.427,178.367 297.427 C 178.517 297.427,178.333 297.667,177.959 297.959 M182.699 301.118 C 183.761 301.525,182.541 303.653,181.038 304.015 C 180.342 304.182,179.320 303.553,179.320 302.957 C 179.320 301.782,181.433 300.632,182.699 301.118 M191.167 304.574 C 189.853 305.371,188.463 306.193,187.601 306.681 C 184.153 308.635,184.632 308.545,184.063 307.347 C 183.569 306.305,183.333 306.226,182.223 306.735 C 181.376 307.123,181.408 307.845,182.331 309.141 C 182.620 309.547,182.857 309.995,182.857 310.136 C 182.857 310.893,183.918 311.373,184.602 310.925 C 184.970 310.684,185.708 310.239,186.241 309.937 C 186.775 309.635,187.609 309.158,188.095 308.877 C 188.582 308.596,189.776 307.914,190.748 307.362 C 193.207 305.967,193.388 305.763,192.929 304.906 C 192.531 304.162,192.008 304.063,191.167 304.574 M263.783 312.083 C 261.476 313.131,260.969 314.712,260.959 320.884 L 260.952 325.170 268.984 325.170 L 277.016 325.170 276.944 318.571 L 276.871 311.973 275.850 311.888 L 274.830 311.804 274.830 317.535 L 274.830 323.265 268.980 323.265 L 263.129 323.265 263.129 321.769 L 263.129 320.272 267.243 320.272 L 271.356 320.272 271.248 317.587 C 271.049 312.640,267.812 310.253,263.783 312.083 M267.723 314.185 C 268.510 314.736,269.116 316.138,269.116 317.406 L 269.116 318.367 266.085 318.367 L 263.053 318.367 263.219 316.972 C 263.546 314.207,265.781 312.825,267.723 314.185 M348.554 330.644 C 348.120 331.456,348.547 331.798,351.196 332.754 C 353.486 333.581,354.014 333.530,354.014 332.479 C 354.014 331.883,353.943 331.842,351.254 330.871 C 348.611 329.916,348.930 329.943,348.554 330.644 M81.361 333.329 C 81.361 335.194,82.385 336.023,84.952 336.233 C 86.337 336.346,87.094 336.529,87.188 336.773 C 87.306 337.080,85.739 337.143,77.951 337.143 L 68.571 337.143 68.571 338.231 L 68.571 339.320 69.660 339.320 C 70.536 339.320,70.748 339.418,70.748 339.821 C 70.748 340.162,71.074 340.424,71.769 340.641 C 73.160 341.076,74.012 341.851,74.431 343.063 L 74.782 344.082 73.799 344.293 C 70.860 344.924,71.156 348.435,74.150 348.435 C 74.891 348.435,75.514 348.257,75.857 347.947 C 76.453 347.407,77.151 347.914,78.817 350.098 C 79.330 350.770,79.733 351.020,80.304 351.020 L 81.088 351.020 81.088 345.170 L 81.088 339.320 82.997 339.320 L 84.905 339.320 84.464 340.340 C 83.316 342.997,83.742 348.400,85.232 350.098 C 86.238 351.243,89.245 351.505,89.786 350.494 C 90.797 348.605,88.860 346.699,87.148 347.898 C 85.879 348.787,85.562 343.654,86.742 341.342 C 87.498 339.862,87.991 339.501,89.487 339.329 C 90.991 339.156,91.660 337.290,90.287 337.096 C 89.884 337.039,89.629 336.793,89.575 336.408 C 89.395 335.143,87.777 334.150,85.895 334.150 C 84.060 334.150,83.537 333.866,83.537 332.871 C 83.537 332.322,83.403 332.245,82.449 332.245 C 81.361 332.245,81.361 332.246,81.361 333.329 M346.848 332.426 C 346.320 332.954,346.699 333.861,347.551 334.111 C 348.037 334.254,349.464 334.750,350.722 335.213 C 353.440 336.213,353.369 336.207,353.758 335.478 C 354.154 334.740,353.768 334.345,352.109 333.791 C 351.435 333.567,350.237 333.127,349.446 332.814 C 347.966 332.228,347.165 332.109,346.848 332.426 M354.887 332.482 C 353.977 333.044,354.227 334.113,355.337 334.412 C 356.631 334.760,356.837 334.995,356.386 335.609 C 356.100 335.998,355.932 336.014,355.158 335.721 C 354.403 335.435,354.221 335.446,354.006 335.786 C 353.555 336.498,353.721 337.149,354.422 337.415 C 355.235 337.724,355.266 337.969,354.597 338.795 C 354.136 339.364,354.019 339.388,353.250 339.070 C 352.787 338.878,352.249 338.776,352.055 338.844 C 351.860 338.912,350.540 338.554,349.120 338.050 C 346.353 337.067,346.008 337.055,345.776 337.942 C 345.664 338.370,345.808 338.607,346.351 338.882 C 347.798 339.616,350.534 340.456,351.043 340.323 C 351.330 340.248,351.630 340.294,351.710 340.424 C 351.791 340.554,352.250 340.776,352.731 340.917 C 353.212 341.058,354.646 341.561,355.918 342.035 C 359.530 343.380,361.611 344.059,361.724 343.929 C 362.282 343.288,362.113 342.353,361.386 342.051 L 360.600 341.726 361.117 340.258 C 361.903 338.021,361.815 337.903,358.735 337.019 C 358.318 336.900,358.191 336.699,358.291 336.317 C 358.470 335.632,358.561 335.639,361.133 336.528 C 362.997 337.172,363.323 337.218,363.545 336.868 C 364.256 335.743,364.055 335.601,359.252 333.852 C 358.391 333.538,357.122 333.062,356.430 332.793 C 355.739 332.525,355.045 332.384,354.887 332.482 M346.976 335.038 C 346.595 335.418,346.572 336.236,346.935 336.460 C 348.045 337.147,351.686 338.197,352.013 337.925 C 352.778 337.291,352.419 336.676,350.952 336.112 C 347.407 334.749,347.295 334.719,346.976 335.038 M358.859 338.968 C 359.309 339.075,359.436 339.242,359.305 339.559 C 359.204 339.801,359.060 340.214,358.985 340.476 C 358.822 341.042,358.791 341.044,357.488 340.591 C 356.120 340.114,356.058 340.012,356.640 339.201 C 356.996 338.705,357.302 338.548,357.687 338.660 C 357.986 338.748,358.514 338.886,358.859 338.968 M78.912 343.007 L 78.912 346.694 77.993 345.994 C 77.341 345.497,77.026 344.998,76.907 344.279 C 76.572 342.250,76.166 341.274,75.253 340.307 L 74.322 339.320 76.617 339.320 L 78.912 339.320 78.912 343.007 M344.915 340.476 C 343.178 344.498,342.862 345.989,343.701 346.209 C 344.044 346.298,344.478 346.245,344.665 346.090 C 344.906 345.890,345.531 345.985,346.802 346.414 C 348.934 347.135,348.860 347.186,349.925 344.237 C 350.883 341.585,350.911 341.336,350.272 341.147 C 350.010 341.070,348.939 340.688,347.892 340.299 C 345.482 339.403,345.376 339.410,344.915 340.476 M347.604 342.153 L 348.524 342.537 348.165 343.582 C 347.967 344.156,347.702 344.615,347.576 344.603 C 346.817 344.526,345.578 344.118,345.578 343.945 C 345.578 343.604,346.392 341.769,346.543 341.769 C 346.621 341.769,347.098 341.942,347.604 342.153 M351.715 343.061 C 351.458 343.772,351.017 344.966,350.736 345.714 C 349.803 348.193,349.787 348.525,350.589 348.726 C 350.988 348.826,351.462 348.770,351.670 348.597 C 351.950 348.364,352.330 348.413,353.231 348.796 C 353.886 349.074,354.750 349.383,355.152 349.482 C 355.554 349.580,355.956 349.894,356.046 350.178 C 356.195 350.647,357.453 351.209,357.731 350.931 C 357.863 350.799,359.008 347.733,359.655 345.779 C 360.171 344.222,360.337 344.409,357.530 343.386 C 351.963 341.357,352.324 341.377,351.715 343.061 M355.986 344.834 C 357.681 345.429,357.755 345.569,357.147 347.024 C 356.778 347.906,356.676 347.972,355.990 347.769 C 355.182 347.531,352.859 346.634,352.682 346.492 C 352.331 346.212,353.566 343.926,353.975 344.097 C 354.221 344.200,355.126 344.532,355.986 344.834 " stroke="none" fill="rgb(177, 177, 177)" fill-rule="evenodd"></path><path id="path1" d="" stroke="none" fill="rgb(177, 177, 177)" fill-rule="evenodd"></path><path id="path2" d="" stroke="none" fill="rgb(177, 177, 177)" fill-rule="evenodd"></path><path id="path3" d="" stroke="none" fill="rgb(177, 177, 177)" fill-rule="evenodd"></path><path id="path4" d="" stroke="none" fill="rgb(177, 177, 177)" fill-rule="evenodd"></path></g>
 </svg>
