<svg xmlns="http://www.w3.org/2000/svg" width="16" height="13.2" viewBox="0 20 925 768">
  
<g>
  <path id="glass" class="cls-1" d="M523.737,288.02l-6.868-19a17.373,17.373,0,0,1-5.152-2c-6.711-3.918-9.907-11.9-11.162-17a31.72,31.72,0,0,1,0-16c1.838-6.644,5.015-10.057,6.869-11,3.928-2,8.535-.3,12.02,2,2.23,1.47,6,5.357,8.586,12,2.232,5.731,4.453,15.214.859,23a19.518,19.518,0,0,1-4.293,6l6.01,18-3.434,2Z" fill="#a28f081" style="fill : none;
        stroke: #969626;
        stroke-width: 6.99px;
		 fill-rule: evenodd;"/>
  <path id="Fyish_Correction" data-name="Fyish Correction" class="cls-2" d="M733.232,283.021l27.475-18q7.728,13.5,15.455,27l-27.475,18Z"/>
  <path id="Fyish" class="cls-2" d="M177.727,581.008a262.778,262.778,0,0,0,40.354,45c16.918,14.914,38.019,28.864,65.252,41,28.634,12.758,58.831,18.929,72.98,19a139.42,139.42,0,0,0,48.081-8,144.076,144.076,0,0,0,38.636-21c9.58-7.29,22.755-21.5,35.2-37,11.871-14.78,20.052-27.658,32.627-38,11.167-9.183,28.131-16.74,48.08-24,11.678-4.249,33.547-12.692,47.223-18,6.084-2.361,17.59-8.709,27.474-15a103.392,103.392,0,0,0,19.748-18,45.413,45.413,0,0,0,8.586-15c2.832-8.583,2.626-16.838.858-28-2.443-15.424-6.558-29.336-10.3-38a135.434,135.434,0,0,0-12.02-22l-77.273,64a23.023,23.023,0,0,1-8.586-4c-6.2-4.642-8.8-11.324-10.3-15-3.435-8.419-10.029-19.7-13.737-32a149.757,149.757,0,0,1-6.01-30,193.017,193.017,0,0,1,0-26q0.717-12.505,2.576-25a33.467,33.467,0,0,1-12.021-13,35.878,35.878,0,0,1-4.292-15,31.046,31.046,0,0,1,2.575-15,24.707,24.707,0,0,1,12.02-12c6.681-3.1,11.283-2.607,13.738-1,4.234,2.772,4.817,8.378,6.869,18,1.378,6.462,3.215,11.46,4.292,18,1.2,7.265,1.935,15.06,1.718,19-0.062,1.12-1.173,9.567-.859,15a63.379,63.379,0,0,0,2.576,14c1.416,4.856,3.258,8.37,5.151,13a131.537,131.537,0,0,1,6.01,18c0.664,2.657,1.23,5.3,1.718,8a48.078,48.078,0,0,1,4.292-4c2.922-2.406,6.039-4.061,8.586-6a54.613,54.613,0,0,0,8.586-9,159.563,159.563,0,0,0,12.02-18c4.46-8.225,14.017-20.628,24.041-32a204.778,204.778,0,0,1,36.919-33q1.717-4,3.434-8v-10a31.332,31.332,0,0,1-13.737-2c-5.63-2.177-12.829-7.131-19.747-18-5.664-8.9-10.977-22.019-12.879-32-0.321-1.686-1.291-7.18-5.152-11a15.137,15.137,0,0,0-8.586-4c-7.828-1.309-16.752-5.481-20.606-9a19.337,19.337,0,0,0-4.293-3c-0.92-.424-1.669-0.536-2.575-1-2.489-1.275-4.463-4.107-6.011-9-4.486-14.187-8.183-34.946-6.868-51,1.486-18.146,4.2-37.721,6.868-45,6.466-17.623,18.881-36.1,42.071-52,9.574-6.562,26.887-14.379,47.222-18,20.454-3.641,40.325-1.773,48.94,1,12.079,3.888,29.173,13.8,46.363,33,8.362,9.338,20.426,28.253,30.91,48,8.9,16.757,16.6,31.821,30.05,48,8.747,10.522,18.65,19.811,32.626,25,10.425,3.869,19.2,3.9,32.627,3,7.823-.527,15.428-1.183,23.181-2a173.607,173.607,0,0,1-32.626,33,152.359,152.359,0,0,1-59.242,28,66.95,66.95,0,0,0,20.606,14c16.333,6.967,34.161,6.148,50.656-1-18.33,15.591-37.955,29.537-57.525,40-20.426,10.919-34.673,14.415-48.939,10-7.277-2.253-20.072-8.118-28.334-20-3.23-4.645-7.929-12.583-15.454-18-4.883-3.514-7.92-4.318-9.445-3-1.719,1.487-1.708,5.356-.858,8a8.114,8.114,0,0,0,2.576,4c3.388,2.582,10.656-.913,12.02-1,12.252-.78,24.559,17.455,29.192,33,1.252,4.2,2.462,13.695,2.575,23a136.671,136.671,0,0,1-.858,17c6.034,7.669,12.061,15.043,18.03,22,6.2,7.224,11.272,13,13.738,23,3.163,12.829.5,26.78-6.011,40a167.194,167.194,0,0,0,16.314,16c12.776,10.9,25.136,16.522,29.192,16,14.869-1.916,30.8-31.765,39.494-40,13.789-13.055,25.879-17.964,35.2-19a48.237,48.237,0,0,1,19.748,2,49.652,49.652,0,0,0-18.03,13c-3.58,4.105-6.075,7.942-5.152,10,1.612,3.591,12.444-1.044,13.738,2,1.436,3.38-10.087,13.37-14.6,17-15.591,12.547-32.813,23.56-42.929,28-18.67,8.192-35.471,11.72-48.081,12-16.513.367-29.273-3.372-37.777-8a71.7,71.7,0,0,1-12.879-9c-9.727,20.483-19.91,40.246-30.909,60-16.268,29.212-33.057,56.536-48.94,79-39.851,56.355-87.9,103.762-112.474,120-57.023,37.673-105.392,48.148-144.243,48-36.671-.142-92.412-13.014-154.545-57-45-31.856-83.181-75.189-112.475-126.994-12.716,15.516-28.667,26.636-46.364,32-17.042,5.164-35.709,5.463-52.373-1-12.5-4.849-21.216-13.978-36.061-18a68.239,68.239,0,0,0-30.909-1,519.681,519.681,0,0,1,42.929-38c15.571-12.252,27.611-19.84,42.929-25a114.861,114.861,0,0,1,34.344-6,138.393,138.393,0,0,1-.859-46c2.759-17.993,10.024-38.5,25.758-61,5.534-7.914,11.507-15.759,16.313-27a120.089,120.089,0,0,0,7.727-26,280.5,280.5,0,0,0,12.879,65c4.317,13.045,8.28,23.263,11.162,37,6.638,31.646,3.669,56.89-.859,70A93.805,93.805,0,0,1,177.727,581.008Z" fill="#2466ff"/>
  <path id="Globe" class="cls-2" d="M197.022,430.831c-1.742-100.119,79.958-182.949,173.4-177.582C458.745,258.322,530.3,340.631,525.8,436.323,521.486,527.94,448.9,600.9,363.556,602.006,274.37,603.16,198.67,525.5,197.022,430.831Z" fill="#2466ff"/>
  <path id="Map" class="cls-3" d="M416.778,496.738c-1.177-.785-2.585-2.4-3.433-5.492a9.889,9.889,0,0,1,0-6.408c0.737-1.685,1.753-2.01,2.575-3.662a10.023,10.023,0,0,0,.858-4.576,38.878,38.878,0,0,0-.858-8.239,9.978,9.978,0,0,1,0-5.492,9.8,9.8,0,0,1,2.032-3.239c2.931-3.592,2.443-8.936,2.26-15.069-0.084-2.82.031-5.416,0-8.238-0.03-2.748-.03-5.458,0-8.238a9.948,9.948,0,0,0-4.292-5.492c-1.674-.921-3.11-0.861-5.151-0.916a26.959,26.959,0,0,1-4.714-.393c-4.66-1.284-5.269-5.161-9.02-6.93-4.4-2.074-7.3.241-12.367-2.1a8.06,8.06,0,0,1-3.943-3.388,9.839,9.839,0,0,1-.654-6.511,54.107,54.107,0,0,0,.654-10.881c-0.125-2.853-.585-4.542,0-7.323a20.331,20.331,0,0,1,3.434-7.323,31.6,31.6,0,0,1,4.291-4.577c0.975-.874,2.18-1.83,3.434-2.746a34.838,34.838,0,0,1,4.292-2.746,18.837,18.837,0,0,1,5.151-1.831,14.214,14.214,0,0,1,5.963.427,16.291,16.291,0,0,1,5.408,2.787c2.468,1.864,3.6,3.773,6.129,5.574a8.216,8.216,0,0,0,8.253,1.281,25.23,25.23,0,0,0,5.15-2.746c2.2-1.313,3.917-1.976,5.151-1.831,1.819,0.215,3,1.378,5.06,3.392a19.994,19.994,0,0,0,3.524,3.016c2.736,1.448,4.673.647,7.2,1.693,2.19,0.907,3.427,2.363,4.867,4.037,1.608,1.868,5.994,5.954,8.534,9.831a63.321,63.321,0,0,0,4.625,6.507,24.557,24.557,0,0,0,4.056,3.94,27.253,27.253,0,0,0,7.03,3.556,64.125,64.125,0,0,0,7.3,2.306c3.4,0.784,7.04,1.3,8.292,1.057,2.806-.548,4.687-1.931,6.467-0.889,0.937,0.549,2.021,2.419,2.366,5.791a13.007,13.007,0,0,1-1.508,7.94c-1.08,1.836-3.478,4.018-7.726,5.492-3.962,1.374-9.719,1.584-11.159,1.831a29.642,29.642,0,0,0-8.584,2.746c-2.891,1.8-6.694,5.717-9.443,12.815-1.474,3.8-1.6,7.208-3.581,11.174-1.718,3.444-3.443,5.121-5.862,8.049a67.439,67.439,0,0,0-6.867,10.069c-1.055,1.892-3.141,5.42-5.151,8.238-3.254,4.562-5.631,6.727-8.584,7.323-3.062.618-5.15-1.05-8.584,0a11.516,11.516,0,0,0-6.009,4.577c-0.657,1-1.235,2.25-2.575,2.746C419.493,498.237,417.722,497.367,416.778,496.738ZM301.512,568.8l-2.411-1.928c0-12.653-1.565-24.737-1.643-37.178-0.072-11.391,1.342-23.151,1.342-34.462-6.356-6.777-22.955-21.2-34.348-21.2l-3.616-8.353q-0.15-9.8-.3-19.6c5.1-5.438,10.847-11.717,10.847-20.239-7.06,0-26.407-21.524-27.419-21.524,0,0-9.721-17.961-17.719-17.961,0,2.167-5.032,9.068-7.422,9.068l-1.7-.989c0.912-3.091-9.125-28.857-7.222-33.168,1.508-3.417,13.762-37.36,28.328-47.6,3.252-2.286,4.095,1.209,7.808,1.3,6.32,6.739,3.916,13.353,8.658,20.938l1.392,3.133,3.4,0.165,6.958-7.254c4.861,0,18.56,3.792,26.285,3.792q0.387,1.071.773,2.143c0,6.06-6.974,8.261-9.895,11.376,0,16.68-30.472,29.335-13.761,47.154h-0.773c-1.056-1.126-12.988-15.663-12.988-15.663-3.976-4.24-12.679,2.885-12.679,7.584,1.835,3.914,4.213,12.365,9.277,12.365,0,0,9.66,12.306,15.387,16.885,6.483,5.185,14.849-2.876,21.372-2.876l23.032,12.39c5.67,6.046,3.849,14.536,10.167,19.027,12.539,8.914,34.443-.291,34.443,21.9l-12.242,10.4q-1.036,6.416-2.075,12.833l-2.49,4.425s-0.276,1.032-.415,1.548c-4.674,7.3-10.588,11.846-15.573,18.907-2.121,3.005-2.536,9.3-4.553,12.51-2.209,7.066,1.811,12.007-4.565,18.806l-1.038,1.107-0.622.663c-0.138.222-.277,0.443-0.415,0.664l-3.735,2.655q-2.282,8.185-4.565,16.372ZM277.8,407.446c-2.251-.433-3.31-1.991-3.707-4.173,1.389-3.705,8.064-1.579,8.18,1.412q-0.354,1.052-.706,2.1a3.051,3.051,0,0,1-3.149.785Zm8.112-1.718c0.868-4.627,8.88-5.73,8.88-.842q-0.357,1.276-.715,2.552c-1.951,3.12-6.5-.894-7.993-0.894-0.033-.071-0.065-0.141-0.1-0.211C285.986,406.333,285.936,405.93,285.912,405.728ZM470,296.271a149.434,149.434,0,0,1,30.044,34.784,158.363,158.363,0,0,1,20.6,51.261,3.884,3.884,0,0,1-2.576,1.831,3.679,3.679,0,0,1-2.582-.782c-1.1-.76-2.455-1.612-3.187-2.011a13.385,13.385,0,0,0-7.107-.869c-2.31.283-3.809,1.163-4.292,1.831-0.759,1.05-1.21,2.8-.5,3.892a3.2,3.2,0,0,0,2.666,1.11c1.8,0.081,4.159.159,4.943,0.069a52.071,52.071,0,0,1,5.853.416,12.38,12.38,0,0,1,5.4,1.734,11.047,11.047,0,0,1,2.244,1.933,8.9,8.9,0,0,1,1.717,2.746,9.377,9.377,0,0,1,0,3.662c-0.166,1.817-.119,3.023-0.777,4.181a6.2,6.2,0,0,1-2.149,2.178,8.277,8.277,0,0,1-3.655,1.089c-2.248.1-4.05,0.581-6.3,0.79-1.163.108-5.959,1.18-9.443,0.915a30.231,30.231,0,0,1-5.44-.96,24.834,24.834,0,0,1-3.977-1.375,33.809,33.809,0,0,1-6.02-4.356c-1.673-1.359-2.706-2.216-3.279-3.84a8.617,8.617,0,0,1,.215-5.732,26.008,26.008,0,0,0,1.4-3.668,2.736,2.736,0,0,0-.065-2.038c-0.415-.712-1.825-1.122-4.293-0.915a16.25,16.25,0,0,0-6.341,1.686c-1,.7-2.828,3.524-4.58,3.563a4,4,0,0,1-2.813-1.587c-0.327-.349-3.4-3.975-5.151-5.493-1.023-.889-2.366-1.351-3.434-2.746-1.254-1.638-1.132-3.229-2.575-4.577-1.642-1.533-4.555-1.437-6.2-2.095-2.708-1.08-3.946-2.39-4.1-3.4-0.305-2.033,2.052-4.323,4.345-5.182a8.836,8.836,0,0,1,5.322,0c3.319,0.694,5.043-.515,8.418-0.264,1.092,0.081,3.3.286,3.961-.924a2.83,2.83,0,0,0-.372-2.64c-1.071-1.666-3.244-1.727-5.364-1.974-2.354-.275-3.934-1.044-6.288-1.315a28.361,28.361,0,0,0-8.637.179c-1.628.449-3.286,1.252-5.2,1.7-4.055.948-7.089,0.237-8.2-.563a9.653,9.653,0,0,1-3.03-4.891c-0.244-.792-0.4-3.675-1.593-5.454a6.4,6.4,0,0,0-3.1-2.471,3.97,3.97,0,0,0-3.433,0c-1.474.9-1.9,3.054-1.717,4.577,0.218,1.839,2.212,4.33,2.5,4.9a7.51,7.51,0,0,1,.964,3.6c-0.052.919-.439,3.547-2.606,4.312a3.943,3.943,0,0,1-4.626-2.085c-0.577-1.255.051-2.777,0.161-4.969a6.075,6.075,0,0,0-.482-3.256c-0.784-1.439-1.891-1.344-2.732-2.57-1.07-1.559-.558-3.258-1.446-5.312a4.927,4.927,0,0,0-1.125-1.714,5.363,5.363,0,0,0-4.178-1.028c-2.831.165-5.449,0.81-6.267,1.371a9.174,9.174,0,0,0-3.375,4.455c-0.759,2.1-1.063,4.352-.161,6,0.768,1.4,2.478,1.722,2.732,3.084,0.371,1.983-2.454,4.161-3.374,4.8a12.254,12.254,0,0,1-2.25,1.2,31.8,31.8,0,0,1-4.178,1.885,12.524,12.524,0,0,1-6.428.172,10.344,10.344,0,0,1-4.982-2.742,9.506,9.506,0,0,1-2.089-4.626c-0.4-2.111.177-3.907,0.482-6.512a15.476,15.476,0,0,1,.965-4.626,7.424,7.424,0,0,1,2.731-3.6c1.1-.582,1.942-0.324,3.054-0.685a7.936,7.936,0,0,0,3.214-2.057,7.556,7.556,0,0,0,1.446-2.056c0.9-2.024.337-4.6,0.482-5.826a10.217,10.217,0,0,1,1.928-4.969,6.6,6.6,0,0,1,3.857-2.742,6.408,6.408,0,0,1,4.66,1.028c1.65,1,2.3,2.228,4.017,3.256,1.384,0.826,2.383.941,2.893,0.685,1.323-.663,1.451-3.125,1.446-3.941-0.008-1.406-.473-2.3,0-3.084,0.734-1.214,2.836-1.109,3.536-1.028,0.309,0.036,1.9.691,2.732,0.342,0.61-.256,1.339-1.2,1.767-3.084a12.565,12.565,0,0,0,.161-3.6c-0.446-3.219-.2-5.49-1.438-7.086-0.708-.912-2.65-1.907-5.151-2.746-2.351-.789-3.847-1.05-4.821-0.449-1.3.8-1.5,2.458-2.249,5.14a14,14,0,0,1-2.571,5.483,7.2,7.2,0,0,1-5.143,2.4c-1.491-.022-2.914-0.91-4.981-2.4-1.924-1.384-3.254-2.463-3.857-3.769a12.192,12.192,0,0,1-.161-6.683c0.662-2.907,1.894-4.468,1.447-6.854-0.2-1.083-.812-1.689-0.841-2.937-0.056-2.463,2.016-3.551,4.292-6.408,2.34-2.936,2.712-5.516,5.387-6.591a13.147,13.147,0,0,1,5.3,0,26.668,26.668,0,0,1,4.66,1.028,18.034,18.034,0,0,1,6.588,4.627c2.737,2.813,4.532,5.926,6.75,8.567,3.251,3.873,5.533,5.407,7.392,4.97a2.823,2.823,0,0,0,2.089-1.714c0.345-1.212-.749-2.286-1.768-4.112a12.658,12.658,0,0,1-1.607-4.8,16.005,16.005,0,0,1,1.768-6.341,9.294,9.294,0,0,1,2.571-3.427,6.589,6.589,0,0,1,4.5-1.028,5.606,5.606,0,0,1,3.536,1.542c1.584,1.951.847,5.091,0.161,6.683-0.789,1.83-2.587,3.679-5.143,5.826-0.77.647-1.887,1.581-1.928,2.913-0.051,1.677,1.642,3.371,3.374,3.941,2.514,0.828,4.717-.849,7.553-2.227a27.84,27.84,0,0,1,6.91-2.228,25.671,25.671,0,0,1,8.517-.343c1.928,0.406,4.917,1.262,7.231,1.885a7.039,7.039,0,0,0,4.018,0A6.856,6.856,0,0,0,470,296.271ZM268.271,286.2a20.248,20.248,0,0,1,5.151-5.492c2.128-1.541,5.866-2.69,10.3-3.661a10.717,10.717,0,0,1,5.15,0,7.952,7.952,0,0,1,3.434,1.83c1.224,1.187,1.462,2.327,2.335,3.928,0.323,0.593,1.43,2.023,2.305,3.16,0.733,0.953,1.629,2.123,2.085,2.575,1.172,1.16,3.849,2.313,4.062,3.628,0.449,2.775-6.238,5.048-7.355,10.066-0.256,1.153.167,3.639,0.769,6.321,0.678,3.022,1.353,5.328,1.1,7.491-0.544,4.6-3.851,9.587-7.244,9.48-0.816-.025-2.941-1.482-5.049-4.1a19.715,19.715,0,0,1-3.842-7.491,43.027,43.027,0,0,1-.322-4.855,29.94,29.94,0,0,0-1.717-6.407,39.177,39.177,0,0,0-2.9-6.529c-1.395-1.972-3.382-3.851-3.073-6.2a2.87,2.87,0,0,0-.035-1.914c-0.448-.759-1.489-0.72-2.575-0.915A8.669,8.669,0,0,1,268.271,286.2ZM296.6,586.444a155.645,155.645,0,0,0,52.364,14.646,143.711,143.711,0,0,0,97.86-25.63,9.677,9.677,0,0,0-5.15-3.662,10.271,10.271,0,0,0-6.868.916c-2.449,1.123-3.406,3.041-6.009,3.661-2.787.664-4.008-.81-6.775-0.26-2.749.547-4.417,2.442-5.743,3.813a34.236,34.236,0,0,1-8.084,6.516,23.255,23.255,0,0,1-12.937,2.382c-3.58-.284-5.915-1.408-9.382-2.382-2.878-.808-8.74-1.3-14.593-0.915-6.335.419-15.511,3.312-17.168,3.661a74.426,74.426,0,0,1-18.027,1.831c-7.043-.271-13.131-1.991-16.31-3.661a56.159,56.159,0,0,1-9.443-6.408c-2.575-2.174-5.64-5.124-9.443-4.577a6.469,6.469,0,0,0-5.15,3.662A6.925,6.925,0,0,0,296.6,586.444Zm208.6-75.06a13.526,13.526,0,0,0-6.009-.916c-2.654.232-4.2,1.231-5.722,0.253-1.891-1.211-2.2-4.545-2.063-7.274a13.974,13.974,0,0,1,2.635-7.625c2.318-3.083,4.5-2.657,6.884-5.569,2.338-2.858,1.958-5.163,4.275-8.161a11.813,11.813,0,0,1,4.292-3.662,12.686,12.686,0,0,1,5.151-.915,24.316,24.316,0,0,0,5.15-.915,161.722,161.722,0,0,1-6.867,19.222A159.374,159.374,0,0,1,505.2,511.384Zm-38.629-26.546c-1.829,1.54-4.778,2.18-6.009.915-1.346-1.383.592-4.574,1.717-10.069,0.805-3.932.878-6.693,2.575-7.323,1.449-.537,3.373.744,4.361,2.211,0.876,1.3.924,4.376-.069,8.774C468.5,482.179,467.917,483.7,466.567,484.838ZM373,331.055c-1.08-2.6,1.509-5.054.858-8.238-0.389-1.906-1.534-2.543-2.28-4.53-1.115-2.972-.837-5.2-0.351-6.25,0.909-1.969,3.1-3.536,4.348-2.951,1.012,0.476.93,2.51,1.748,5.2a10.448,10.448,0,0,0,1.758,3.625c1.872,1.671,4.573.642,5.979,2.376a8.213,8.213,0,0,1,.586,4.125,16.248,16.248,0,0,1-1.289,5.75,9.2,9.2,0,0,1-3.049,4.125,6.512,6.512,0,0,1-4.874-.486A7.126,7.126,0,0,1,373,331.055Zm-43.78-33.868c-2.723-2.065-1.413-6.776-1.06-7.862,0.792-2.439,1.837-3.8,3.123-4,1.978-.3,3.635,2.234,4.247,3.6,1.078,2.4,1.333,6.484-1.159,8.262A4.472,4.472,0,0,1,329.219,297.187Zm-18.885,8.238c0.845-.445,3.816.1,7.458,2.014,2.94,1.547,4.329,2.757,4.622,4.395a4.619,4.619,0,0,1-1.624,4.395c-1.54,1.083-3.29.177-6.164-.735-3.553-1.128-6.032-.994-6.867-2.746C306.657,310.438,307.949,306.681,310.334,305.425Zm6.867-13.731c-2.076-4.023.694-10.056,2.576-10.069,1.181-.008,2.22,2.357,3.136,5.7,0.942,3.437,1.351,6.678,0,7.592C321.507,295.87,318.459,294.131,317.2,291.694Zm-53.222,31.123c0.491-1.709,3.167-4.854,4.15-6.881a10.556,10.556,0,0,0,1.015-5.807,10.805,10.805,0,0,0-1.661-4.331c-1.658-2.839-3.323-4.408-3.138-6.2a5.169,5.169,0,0,1,4.8-4.33,5.093,5.093,0,0,1,4.523,3.051c1.257,2.85-1.087,6.689-1.107,9.744a16.622,16.622,0,0,0,1.938,7.481c1.013,1.993,2.2,3.38,1.846,5.216-0.479,2.474-3.41,3.97-5.353,4.429-1.825.431-3.134-.2-5.295-0.54a2.125,2.125,0,0,1-1.717-.916A1.374,1.374,0,0,1,263.979,322.817Zm-4.292-7.323c0.869-1.952-.517-3.5,0-5.492,0.54-2.079,2.229-2.257,2.719-4.5a5.437,5.437,0,0,0-1.015-4.429,5.069,5.069,0,0,0-6.83-.886c-2.549,1.94-1.843,6.088-1.57,7.283,0.442,1.932,1.61,3.077,2.216,4.43,0.434,0.968,1.225,5.207,2.307,5.413C258.29,317.462,259.244,316.491,259.687,315.494Z" fill="#3efd02"/>
 </g>
</svg>