<svg xmlns="http://www.w3.org/2000/svg" xmlns:xlink="http://www.w3.org/1999/xlink" id="Capa_1" enable-background="new 0 0 512 512" height="512" viewBox="0 0 512 512" width="512"><linearGradient id="SVGID_1_" gradientUnits="userSpaceOnUse" x1="272.146" x2="272.146" y1="378.311" y2="101.411"><stop offset="0" stop-color="white"/><stop offset="1" stop-color="white"/></linearGradient><linearGradient id="SVGID_2_" gradientUnits="userSpaceOnUse" x1="256" x2="256" y1="512" y2="0"><stop offset="0" stop-color="blue"/><stop offset="1" stop-color="skyblue"/></linearGradient><g><g><g><path d="m401.727 237.524-42.276-42.524 41.953-42.217c12.346-11.667 11.989-31.454.586-42.188-11.666-12.314-31.345-12.049-42.48-.322l-42.51 42.276-42.217-41.982c-11.777-12.369-31.546-11.859-42.187-.557-12.386 11.732-12.01 31.428-.322 42.466l42.275 42.524-41.953 42.217c-12.452 11.767-11.798 31.687-.85 41.895 10.542 11.739 29.981 13.315 42.744.615l42.51-42.276 42.51 42.275c12.909 12.845 32.637 10.708 41.895.264 12.385-11.732 12.009-31.427.322-42.466zm-222.598 74.151-41.045 41.03c-5.859 5.859-5.859 15.352 0 21.211 5.859 5.86 15.352 5.859 21.211 0l41.045-41.03c5.859-5.859 5.859-15.352 0-21.211s-15.352-5.86-21.211 0z" fill="url(#SVGID_1_)"/></g></g><g><g><path d="m317 0c-107.402 0-195 87.599-195 195s87.598 195 195 195 195-87.599 195-195-87.598-195-195-195zm74.099 248.101c5.999 5.7 5.999 15.3 0 20.999-4.89 5.438-14.459 6.543-20.999 0l-53.1-52.799c-32.249 25.203-56.589 72.269-74.099 52.798-5.999-5.698-5.999-15.298 0-20.999l52.8-53.101-52.8-53.101c-5.999-5.7-5.999-15.3 0-20.999 5.698-6 15.3-6 20.999 0l53.1 52.8 53.101-52.798c5.698-6 15.3-6 20.999 0 5.999 5.698 5.999 15.298 0 20.999l-52.801 53.1zm-253.015 83.393c-5.859-5.859-15.352-5.859-21.211 0l-112.478 112.479c-5.859 5.859-5.859 15.352 0 21.211l42.422 42.422c5.86 5.859 15.352 5.859 21.211 0l112.479-112.479c5.859-5.859 5.859-15.352 0-21.211z" fill="url(#SVGID_2_)"/></g></g></g></svg>