<svg xmlns="http://www.w3.org/2000/svg" width="512" height="512" viewBox="0 0 512 512">
  <defs>
    <style>
      .cls-1 {
        fill: #4663b5;
      }

      .cls-2 {
        fill: #10245c;
        fill-rule: evenodd;
      }
    </style>
  </defs>
  <rect id="Box1" class="cls-1" x="1" width="238" height="239" rx="10" ry="10"/>
  <path id="Box2" class="cls-2" d="M282,0H500a10,10,0,0,1,10,10V229a10,10,0,0,1-10,10H282a10,10,0,0,1-10-10V10A10,10,0,0,1,282,0ZM11,273H229a10,10,0,0,1,10,10V502a10,10,0,0,1-10,10H11A10,10,0,0,1,1,502V283A10,10,0,0,1,11,273Z"/>
  <rect id="stork1" class="cls-1" x="385" y="275" width="15" height="237" rx="7.5" ry="7.5"/>
  <rect id="stork2" class="cls-1" x="275" y="377" width="235" height="16" rx="8" ry="8"/>
</svg>
