<svg xmlns="http://www.w3.org/2000/svg" width="512" height="512" viewBox="0 0 512 512">
   <!--Designed By Fyissh Inc. 2021-->
   <linearGradient  xmlns="http://www.w3.org/2000/svg" id="id1_l"><stop  offset="0" stop-color="#596c76"></stop><stop  offset="1" stop-color="#4d5356"></stop></linearGradient>
   <linearGradient  xmlns="http://www.w3.org/2000/svg" id="id2_l"><stop  offset="0" stop-color="#b6c4cf"></stop><stop  offset="1" stop-color="#9fa3a7"></stop></linearGradient>
 
  <path fill="url(#id1_l)" d="M157,424c6.677,50.03,49.981,87.5,100,87,49.282-.492,91.426-37.707,98-87H157Z"/>
  <path fill="url(#id2_l)" d="M261,434c-37.155.159-82.248-.371-132-13-35.162-8.925-60.768-21.169-70-44-4.645-11.488-1.28-35.322,10-66,2.989-8.13,14.712-32.428,19-51,6.3-27.271,1.125-48.027,1-78-0.112-27.019,2.137-52.081,7-67,8.971-27.522,25.784-52.058,47-71A169.579,169.579,0,0,1,257,1,167.493,167.493,0,0,1,357,35c21.438,16.36,39.683,39.028,52,67,6.7,15.225,12.868,38.1,15,65,2.519,31.781-6.5,52.392,0,85,4.09,20.5,14.884,41.819,20,57,11.534,34.227,14.044,57.674,7,72-11.076,22.526-36.463,31.886-61,38C341.579,431.065,279.045,433.923,261,434Z"/>
  <path fill="url(#id1_l)" id="Shape_4_copy" data-name="Shape 4 copy" class="cls-1" d="M72,139a196.534,196.534,0,0,1,36-89,13.322,13.322,0,0,0-4-13,13.469,13.469,0,0,0-16-1,201.576,201.576,0,0,0-40,98c-0.664,7.182,4.551,13.367,11,14A12.66,12.66,0,0,0,72,139Zm-47-2A231.139,231.139,0,0,1,72,21,12.815,12.815,0,0,0,69,7,12.894,12.894,0,0,0,53,6,226.158,226.158,0,0,0,1,135a12.387,12.387,0,0,0,10,12A12.455,12.455,0,0,0,25,137Zm415.248,2.961a196.136,196.136,0,0,0-35.874-88.769A13,13,0,0,1,424.3,37.229a201.152,201.152,0,0,1,39.86,97.746c0.661,7.163-4.535,13.332-10.961,13.964A12.617,12.617,0,0,1,440.248,139.961Zm46.836-2a230.662,230.662,0,0,0-46.836-115.7A12.791,12.791,0,0,1,443.237,8.3a12.842,12.842,0,0,1,15.945-1A225.682,225.682,0,0,1,511,135.971,12.032,12.032,0,0,1,487.084,137.966Z"/>
</svg>
