<svg xmlns="http://www.w3.org/2000/svg" width="290" height="418" viewBox="0 0 290 418">
   <!--Designed By Fyissh Inc. 2021-->
        <linearGradient  xmlns="http://www.w3.org/2000/svg" id="id1_l"><stop  offset="0" stop-color="#596c76"></stop><stop data-v-6e8d4944="" offset="1" stop-color="#4d5356"></stop></linearGradient>
   <linearGradient  xmlns="http://www.w3.org/2000/svg" id="id2_l"><stop  offset="0" stop-color="#b6c4cf"></stop><stop data-v-6e8d4944="" offset="1" stop-color="#9fa3a7"></stop></linearGradient>
  <defs>
    <style>
      

      .cls-1, .cls-2, .cls-3, .cls-4 {
        fill-rule: evenodd;
      }

      .cls-2 {
        fill: #797979;
        opacity: 0.22;
      }

      

      .cls-4 {
        fill: #596c76;
      }

      .cls-5 {
        fill: #e1faff;
      }
    </style>
  </defs>
  <path fill="url(#id1_l)" d="M71,188c-4.26.293-16.344,1.4-26-6a31.2,31.2,0,0,1-10-14,227.281,227.281,0,0,1,1-61c3.62-23.523,11.835-43.7,18-53C65.124,37.229,78.778,25.8,93,19c9.438-4.512,24-8.27,42-9a197.1,197.1,0,0,1,66,9l9,3a9.849,9.849,0,0,1,5,13,88.08,88.08,0,0,1,38,20,86.794,86.794,0,0,1,17,21,8.088,8.088,0,0,1,1,5,8.731,8.731,0,0,1-3,5c-2.158,1.955-5.3,6.87-8,12-4.838,9.178-4.263,18.053-4,24,0.244,5.514-.094,20.319,0,31,0.029,3.33.029,6.63,0,10a11.9,11.9,0,0,1-2,2c-1.774,1.391-3.229,1.6-5,3a17.091,17.091,0,0,0-2,2c-1.786,2.053-2.806,4.485-4,6-3.571,4.533-10.262,4.8-13,5C175.279,185,87.188,186.885,71,188Z"/>
  <path id="Shape_2_copy" data-name="Shape 2 copy" class="cls-2" d="M71,188c-12.984.925-21.879-2.842-26-6a31.2,31.2,0,0,1-10-14c-0.625-8.068-.955-15.975-1-24a275.52,275.52,0,0,1,2-37,229.324,229.324,0,0,1,5-26c31.68-30.009,71.272-37.248,101-24,10.352,4.613,29.345,15.784,34,34C187.265,135.083,111.346,185.127,71,188Z"/>
  <path fill="url(#id2_l)" d="M266,403H24a7.083,7.083,0,0,1-14,0V351a76.735,76.735,0,0,1,14-30c10.359-13.489,21.227-20.413,29-23,10.351-3.445,20.69-2.794,33-6,3.7-.964,9.413-2.694,14-8,4.153-4.8,6.051-11.143,6-18a92.9,92.9,0,0,1-31-26,94.038,94.038,0,0,1-19-53q0.5-34,1-68A45.585,45.585,0,0,1,99,83l92-1a49.512,49.512,0,0,1,43,41v58a92.693,92.693,0,0,1-20,60,91.168,91.168,0,0,1-36,27q0.5,5,1,10h7l1,1a30.047,30.047,0,0,0,12,13c8.723,4.818,15.987,2.078,26,3,19.065,1.755,33.722,16.3,40,24a68.9,68.9,0,0,1,15,37v48A7.228,7.228,0,0,1,266,403Z"/>
  <path id="Shape_1_copy" data-name="Shape 1 copy" class="cls-4" d="M266,403H24a7.083,7.083,0,0,1-14,0V351a76.735,76.735,0,0,1,14-30c10.359-13.489,21.227-20.413,29-23,10.307-3.431,23.485-3.715,33-6,3.781-.908,9.635-2.649,14-8a20.557,20.557,0,0,0,3-5,120.942,120.942,0,0,1,13,3c5.609,1.629,17.453,8.563,26,8,5.306-.35,12.056-2.337,15,1a9.161,9.161,0,0,0,2,2,7,7,0,0,0,4,1,19,19,0,0,1,7-3c1.7-.331,3.681-0.458,5-2,1.2-1.4,1.44-3.485,1-6l3-5h7l1,1a30.047,30.047,0,0,0,12,13c8.723,4.818,15.987,2.078,26,3,19.065,1.755,33.722,16.3,40,24a68.9,68.9,0,0,1,15,37v48A7.228,7.228,0,0,1,266,403Z"/>
  <rect id="Rounded_Rectangle_1" data-name="Rounded Rectangle 1" class="cls-5" x="204" y="369" width="41" height="17" rx="8.5" ry="8.5"/>
</svg>
